<?xml version="1.0" encoding="UTF-8" standalone="no"?><!DOCTYPE svg PUBLIC "-//W3C//DTD SVG 1.1//EN" "http://www.w3.org/Graphics/SVG/1.1/DTD/svg11.dtd"><!-- Generated by graphviz version 2.40.1 (20161225.0304)
 --><!-- Title: G Pages: 1 --><svg xmlns="http://www.w3.org/2000/svg" xmlns:xlink="http://www.w3.org/1999/xlink" width="2797pt" height="727pt" viewBox="0.00 0.00 2797.07 727.19">
<g id="graph0" class="graph" transform="scale(1 1) rotate(0) translate(4 723.1855)">
<title>G</title>
<polygon fill="#ffffff" stroke="transparent" points="-4,4 -4,-723.1855 2793.0695,-723.1855 2793.0695,4 -4,4"/>
<!-- _20216A15 -->
<g id="node1" class="node">
<title>_20216A15</title>
<ellipse fill="none" stroke="#000000" cx="516.3327" cy="-506.8622" rx="136.755" ry="41.0911"/>
<text text-anchor="middle" x="516.3327" y="-519.4622" font-family="Helvetica,sans-Serif" font-size="14.00" fill="#000000">:Timetable</text>
<text text-anchor="start" x="427.7225" y="-502.6622" font-family="Helvetica,sans-Serif" font-size="14.00" fill="#000000">academicYear: "2020/2021",</text>
<text text-anchor="start" x="427.7225" y="-485.8622" font-family="Helvetica,sans-Serif" font-size="14.00" fill="#000000">version: 1.5</text>
</g>
<!-- _6A -->
<g id="node4" class="node">
<title>_6A</title>
<ellipse fill="none" stroke="#000000" cx="128.3327" cy="-347.7134" rx="54.8098" ry="41.0911"/>
<text text-anchor="middle" x="128.3327" y="-360.3134" font-family="Helvetica,sans-Serif" font-size="14.00" fill="#000000">:Class</text>
<text text-anchor="start" x="97.686" y="-343.5134" font-family="Helvetica,sans-Serif" font-size="14.00" fill="#000000">code: "A",</text>
<text text-anchor="start" x="97.686" y="-326.7134" font-family="Helvetica,sans-Serif" font-size="14.00" fill="#000000">year: 6</text>
</g>
<!-- _20216A15&#45;&gt;_6A -->
<g id="edge5" class="edge">
<title>_20216A15-&gt;_6A</title>
<path fill="none" stroke="#000000" d="M406.251,-482.2969C341.1748,-465.063 258.6077,-438.3522 191.3327,-400.8878 184.211,-396.9218 177.1399,-392.0887 170.4494,-386.9705"/>
<polygon fill="#000000" stroke="#000000" points="172.1998,-383.8888 162.2032,-380.3788 167.829,-389.3566 172.1998,-383.8888"/>
<text text-anchor="middle" x="309.8986" y="-423.0878" font-family="Helvetica,sans-Serif" font-size="14.00" fill="#000000">:BelongingClass</text>
</g>
<!-- TH0855S6 -->
<g id="node7" class="node">
<title>TH0855S6</title>
<ellipse fill="none" stroke="#000000" cx="808.3327" cy="-347.7134" rx="196.6378" ry="41.0911"/>
<text text-anchor="middle" x="808.3327" y="-360.3134" font-family="Helvetica,sans-Serif" font-size="14.00" fill="#000000">:Lesson</text>
<text text-anchor="start" x="677.3375" y="-343.5134" font-family="Helvetica,sans-Serif" font-size="14.00" fill="#000000">LessonUrl: "https://zoom.com/TH0855S6",</text>
<text text-anchor="start" x="677.3375" y="-326.7134" font-family="Helvetica,sans-Serif" font-size="14.00" fill="#000000">LessonID: "TH0855S6"</text>
</g>
<!-- _20216A15&#45;&gt;TH0855S6 -->
<g id="edge1" class="edge">
<title>_20216A15-&gt;TH0855S6</title>
<path fill="none" stroke="#000000" d="M582.9574,-470.5497C626.1951,-446.9839 682.777,-416.145 728.4298,-391.2629"/>
<polygon fill="#000000" stroke="#000000" points="730.3019,-394.2287 737.4074,-386.3698 726.9519,-388.0823 730.3019,-394.2287"/>
<text text-anchor="middle" x="720.5213" y="-423.0878" font-family="Helvetica,sans-Serif" font-size="14.00" fill="#000000">:PlannedLesson</text>
</g>
<!-- _21226B10 -->
<g id="node2" class="node">
<title>_21226B10</title>
<ellipse fill="none" stroke="#000000" cx="1447.3327" cy="-506.8622" rx="136.755" ry="41.0911"/>
<text text-anchor="middle" x="1447.3327" y="-519.4622" font-family="Helvetica,sans-Serif" font-size="14.00" fill="#000000">:Timetable</text>
<text text-anchor="start" x="1358.7225" y="-502.6622" font-family="Helvetica,sans-Serif" font-size="14.00" fill="#000000">academicYear: "2021/2022",</text>
<text text-anchor="start" x="1358.7225" y="-485.8622" font-family="Helvetica,sans-Serif" font-size="14.00" fill="#000000">version: 1.0</text>
</g>
<!-- _6B -->
<g id="node5" class="node">
<title>_6B</title>
<ellipse fill="none" stroke="#000000" cx="1160.3327" cy="-347.7134" rx="54.8098" ry="41.0911"/>
<text text-anchor="middle" x="1160.3327" y="-360.3134" font-family="Helvetica,sans-Serif" font-size="14.00" fill="#000000">:Class</text>
<text text-anchor="start" x="1129.686" y="-343.5134" font-family="Helvetica,sans-Serif" font-size="14.00" fill="#000000">code: "B",</text>
<text text-anchor="start" x="1129.686" y="-326.7134" font-family="Helvetica,sans-Serif" font-size="14.00" fill="#000000">year: 6</text>
</g>
<!-- _21226B10&#45;&gt;_6B -->
<g id="edge6" class="edge">
<title>_21226B10-&gt;_6B</title>
<path fill="none" stroke="#000000" d="M1373.4924,-471.9565C1333.2051,-452.2393 1282.8209,-426.4751 1239.3327,-400.8878 1229.3036,-394.987 1218.8177,-388.3115 1208.8843,-381.7333"/>
<polygon fill="#000000" stroke="#000000" points="1210.5789,-378.6558 1200.3225,-375.9994 1206.6838,-384.472 1210.5789,-378.6558"/>
<text text-anchor="middle" x="1350.8986" y="-423.0878" font-family="Helvetica,sans-Serif" font-size="14.00" fill="#000000">:BelongingClass</text>
</g>
<!-- MO0800S7 -->
<g id="node8" class="node">
<title>MO0800S7</title>
<ellipse fill="none" stroke="#000000" cx="1447.3327" cy="-347.7134" rx="199.1421" ry="41.0911"/>
<text text-anchor="middle" x="1447.3327" y="-360.3134" font-family="Helvetica,sans-Serif" font-size="14.00" fill="#000000">:Lesson</text>
<text text-anchor="start" x="1314.3915" y="-343.5134" font-family="Helvetica,sans-Serif" font-size="14.00" fill="#000000">LessonUrl: "https://zoom.com/MO0800S7",</text>
<text text-anchor="start" x="1314.3915" y="-326.7134" font-family="Helvetica,sans-Serif" font-size="14.00" fill="#000000">LessonID: "MO0800S7"</text>
</g>
<!-- _21226B10&#45;&gt;MO0800S7 -->
<g id="edge2" class="edge">
<title>_21226B10-&gt;MO0800S7</title>
<path fill="none" stroke="#000000" d="M1447.3327,-465.4632C1447.3327,-445.2804 1447.3327,-420.8036 1447.3327,-399.406"/>
<polygon fill="#000000" stroke="#000000" points="1450.8328,-399.1812 1447.3327,-389.1813 1443.8328,-399.1813 1450.8328,-399.1812"/>
<text text-anchor="middle" x="1497.5213" y="-423.0878" font-family="Helvetica,sans-Serif" font-size="14.00" fill="#000000">:PlannedLesson</text>
</g>
<!-- FR1000S6 -->
<g id="node10" class="node">
<title>FR1000S6</title>
<ellipse fill="none" stroke="#000000" cx="1861.3327" cy="-347.7134" rx="196.6378" ry="41.0911"/>
<text text-anchor="middle" x="1861.3327" y="-360.3134" font-family="Helvetica,sans-Serif" font-size="14.00" fill="#000000">:Lesson</text>
<text text-anchor="start" x="1730.3375" y="-343.5134" font-family="Helvetica,sans-Serif" font-size="14.00" fill="#000000">LessonUrl: "https://zoom.com/FR1000S6",</text>
<text text-anchor="start" x="1730.3375" y="-326.7134" font-family="Helvetica,sans-Serif" font-size="14.00" fill="#000000">LessonID: "FR1000S6"</text>
</g>
<!-- _21226B10&#45;&gt;FR1000S6 -->
<g id="edge3" class="edge">
<title>_21226B10-&gt;FR1000S6</title>
<path fill="none" stroke="#000000" d="M1531.8606,-474.3682C1597.024,-449.3183 1687.4721,-414.5484 1757.1176,-387.7755"/>
<polygon fill="#000000" stroke="#000000" points="1758.7238,-390.9078 1766.802,-384.0526 1756.212,-384.3739 1758.7238,-390.9078"/>
<text text-anchor="middle" x="1716.5213" y="-423.0878" font-family="Helvetica,sans-Serif" font-size="14.00" fill="#000000">:PlannedLesson</text>
</g>
<!-- _22234C20 -->
<g id="node3" class="node">
<title>_22234C20</title>
<ellipse fill="none" stroke="#000000" cx="2357.3327" cy="-666.0111" rx="136.755" ry="41.0911"/>
<text text-anchor="middle" x="2357.3327" y="-678.6111" font-family="Helvetica,sans-Serif" font-size="14.00" fill="#000000">:Timetable</text>
<text text-anchor="start" x="2268.7225" y="-661.8111" font-family="Helvetica,sans-Serif" font-size="14.00" fill="#000000">academicYear: "2022/2023",</text>
<text text-anchor="start" x="2268.7225" y="-645.0111" font-family="Helvetica,sans-Serif" font-size="14.00" fill="#000000">version: 2.0</text>
</g>
<!-- _4C -->
<g id="node6" class="node">
<title>_4C</title>
<ellipse fill="none" stroke="#000000" cx="2655.3327" cy="-506.8622" rx="55.399" ry="41.0911"/>
<text text-anchor="middle" x="2655.3327" y="-519.4622" font-family="Helvetica,sans-Serif" font-size="14.00" fill="#000000">:Class</text>
<text text-anchor="start" x="2624.301" y="-502.6622" font-family="Helvetica,sans-Serif" font-size="14.00" fill="#000000">code: "C",</text>
<text text-anchor="start" x="2624.301" y="-485.8622" font-family="Helvetica,sans-Serif" font-size="14.00" fill="#000000">year: 4</text>
</g>
<!-- _22234C20&#45;&gt;_4C -->
<g id="edge7" class="edge">
<title>_22234C20-&gt;_4C</title>
<path fill="none" stroke="#000000" d="M2424.9535,-629.8977C2478.3018,-601.4067 2551.7278,-562.1931 2601.2255,-535.7585"/>
<polygon fill="#000000" stroke="#000000" points="2603.0071,-538.775 2610.1791,-530.9768 2599.7094,-532.6004 2603.0071,-538.775"/>
<text text-anchor="middle" x="2564.8986" y="-582.2367" font-family="Helvetica,sans-Serif" font-size="14.00" fill="#000000">:BelongingClass</text>
</g>
<!-- FR1000S9 -->
<g id="node9" class="node">
<title>FR1000S9</title>
<ellipse fill="none" stroke="#000000" cx="2331.3327" cy="-347.7134" rx="196.6378" ry="41.0911"/>
<text text-anchor="middle" x="2331.3327" y="-360.3134" font-family="Helvetica,sans-Serif" font-size="14.00" fill="#000000">:Lesson</text>
<text text-anchor="start" x="2200.3375" y="-343.5134" font-family="Helvetica,sans-Serif" font-size="14.00" fill="#000000">LessonUrl: "https://zoom.com/FR1000S9",</text>
<text text-anchor="start" x="2200.3375" y="-326.7134" font-family="Helvetica,sans-Serif" font-size="14.00" fill="#000000">LessonID: "FR1000S9"</text>
</g>
<!-- _22234C20&#45;&gt;FR1000S9 -->
<g id="edge4" class="edge">
<title>_22234C20-&gt;FR1000S9</title>
<path fill="none" stroke="#000000" d="M2353.9603,-624.7255C2349.2421,-566.9649 2340.6747,-462.081 2335.5435,-399.263"/>
<polygon fill="#000000" stroke="#000000" points="2339.0223,-398.86 2334.7197,-389.1782 2332.0455,-399.43 2339.0223,-398.86"/>
<text text-anchor="middle" x="2398.5213" y="-502.6622" font-family="Helvetica,sans-Serif" font-size="14.00" fill="#000000">:PlannedLesson</text>
</g>
<!-- muk -->
<g id="node15" class="node">
<title>muk</title>
<ellipse fill="none" stroke="#000000" cx="128.3327" cy="-188.5645" rx="128.1656" ry="53.3494"/>
<text text-anchor="middle" x="128.3327" y="-209.5645" font-family="Helvetica,sans-Serif" font-size="14.00" fill="#000000">:Teacher</text>
<text text-anchor="start" x="45.5878" y="-192.7645" font-family="Helvetica,sans-Serif" font-size="14.00" fill="#000000">ID: "muk",</text>
<text text-anchor="start" x="45.5878" y="-175.9645" font-family="Helvetica,sans-Serif" font-size="14.00" fill="#000000">name: "Vladimír Mukvald"</text>
<text text-anchor="start" x="45.5878" y="-159.1645" font-family="Helvetica,sans-Serif" font-size="14.00" fill="#000000">experience: 5</text>
</g>
<!-- _6A&#45;&gt;muk -->
<g id="edge8" class="edge">
<title>_6A-&gt;muk</title>
<path fill="none" stroke="#000000" d="M128.3327,-306.3143C128.3327,-289.6846 128.3327,-270.1396 128.3327,-251.8039"/>
<polygon fill="#000000" stroke="#000000" points="131.8328,-251.7679 128.3327,-241.7679 124.8328,-251.768 131.8328,-251.7679"/>
<text text-anchor="middle" x="173.4477" y="-263.9389" font-family="Helvetica,sans-Serif" font-size="14.00" fill="#000000">:ClassTeacher</text>
</g>
<!-- pel -->
<g id="node16" class="node">
<title>pel</title>
<ellipse fill="none" stroke="#000000" cx="1144.3327" cy="-188.5645" rx="121.9836" ry="53.3494"/>
<text text-anchor="middle" x="1144.3327" y="-209.5645" font-family="Helvetica,sans-Serif" font-size="14.00" fill="#000000">:Teacher</text>
<text text-anchor="start" x="1066.2484" y="-192.7645" font-family="Helvetica,sans-Serif" font-size="14.00" fill="#000000">ID: "pel",</text>
<text text-anchor="start" x="1066.2484" y="-175.9645" font-family="Helvetica,sans-Serif" font-size="14.00" fill="#000000">name: "Jaroslav Pelikán"</text>
<text text-anchor="start" x="1066.2484" y="-159.1645" font-family="Helvetica,sans-Serif" font-size="14.00" fill="#000000">experience: 3</text>
</g>
<!-- _6B&#45;&gt;pel -->
<g id="edge9" class="edge">
<title>_6B-&gt;pel</title>
<path fill="none" stroke="#000000" d="M1156.1706,-306.3143C1154.4988,-289.6846 1152.5338,-270.1396 1150.6904,-251.8039"/>
<polygon fill="#000000" stroke="#000000" points="1154.1643,-251.3676 1149.6815,-241.7679 1147.1994,-252.0679 1154.1643,-251.3676"/>
<text text-anchor="middle" x="1197.4477" y="-263.9389" font-family="Helvetica,sans-Serif" font-size="14.00" fill="#000000">:ClassTeacher</text>
</g>
<!-- svo -->
<g id="node17" class="node">
<title>svo</title>
<ellipse fill="none" stroke="#000000" cx="2661.3327" cy="-347.7134" rx="115.928" ry="53.3494"/>
<text text-anchor="middle" x="2661.3327" y="-368.7134" font-family="Helvetica,sans-Serif" font-size="14.00" fill="#000000">:Teacher</text>
<text text-anchor="start" x="2587.5107" y="-351.9134" font-family="Helvetica,sans-Serif" font-size="14.00" fill="#000000">ID: "svo",</text>
<text text-anchor="start" x="2587.5107" y="-335.1134" font-family="Helvetica,sans-Serif" font-size="14.00" fill="#000000">name: "Patrik Svoboda"</text>
<text text-anchor="start" x="2587.5107" y="-318.3134" font-family="Helvetica,sans-Serif" font-size="14.00" fill="#000000">experience: 2</text>
</g>
<!-- _4C&#45;&gt;svo -->
<g id="edge10" class="edge">
<title>_4C-&gt;svo</title>
<path fill="none" stroke="#000000" d="M2656.8934,-465.4632C2657.5204,-448.8334 2658.2572,-429.2885 2658.9485,-410.9527"/>
<polygon fill="#000000" stroke="#000000" points="2662.4476,-411.0416 2659.3269,-400.9168 2655.4525,-410.7778 2662.4476,-411.0416"/>
<text text-anchor="middle" x="2703.4477" y="-423.0878" font-family="Helvetica,sans-Serif" font-size="14.00" fill="#000000">:ClassTeacher</text>
</g>
<!-- TH0855 -->
<g id="node19" class="node">
<title>TH0855</title>
<ellipse fill="none" stroke="#000000" cx="517.3327" cy="-188.5645" rx="148.3487" ry="53.3494"/>
<text text-anchor="middle" x="517.3327" y="-209.5645" font-family="Helvetica,sans-Serif" font-size="14.00" fill="#000000">:TimeSlot</text>
<text text-anchor="start" x="420.5577" y="-192.7645" font-family="Helvetica,sans-Serif" font-size="14.00" fill="#000000">TimeSlotBeginning: "08:55:00",</text>
<text text-anchor="start" x="420.5577" y="-175.9645" font-family="Helvetica,sans-Serif" font-size="14.00" fill="#000000">TimeSlotEnd: "09:40:00"</text>
<text text-anchor="start" x="420.5577" y="-159.1645" font-family="Helvetica,sans-Serif" font-size="14.00" fill="#000000">DayOfWeek: "Thursday"</text>
</g>
<!-- TH0855S6&#45;&gt;TH0855 -->
<g id="edge18" class="edge">
<title>TH0855S6-&gt;TH0855</title>
<path fill="none" stroke="#000000" d="M693.8208,-314.0361C666.7788,-303.8574 638.7101,-291.3624 614.2219,-276.5389 600.0573,-267.9647 586.1056,-257.143 573.3934,-246.0482"/>
<polygon fill="#000000" stroke="#000000" points="575.4353,-243.1788 565.6477,-239.1225 570.7695,-248.3971 575.4353,-243.1788"/>
<text text-anchor="middle" x="649.8881" y="-263.9389" font-family="Helvetica,sans-Serif" font-size="14.00" fill="#000000">:TakesTime</text>
</g>
<!-- Math -->
<g id="node21" class="node">
<title>Math</title>
<ellipse fill="none" stroke="#000000" cx="497.3327" cy="-41.295" rx="134.3022" ry="41.0911"/>
<text text-anchor="middle" x="497.3327" y="-53.895" font-family="Helvetica,sans-Serif" font-size="14.00" fill="#000000">:Subject</text>
<text text-anchor="start" x="410.2968" y="-37.095" font-family="Helvetica,sans-Serif" font-size="14.00" fill="#000000">SubjectID: "mt",</text>
<text text-anchor="start" x="410.2968" y="-20.295" font-family="Helvetica,sans-Serif" font-size="14.00" fill="#000000">SubjectName: "Matematika"</text>
</g>
<!-- TH0855S6&#45;&gt;Math -->
<g id="edge20" class="edge">
<title>TH0855S6-&gt;Math</title>
<path fill="none" stroke="#000000" d="M763.1054,-307.2907C744.5817,-288.8027 724.2016,-265.6972 709.9779,-241.7389 684.5293,-198.8736 706.5536,-173.428 674.3327,-135.3901 653.3249,-110.5897 624.0882,-91.3614 595.4224,-76.9402"/>
<polygon fill="#000000" stroke="#000000" points="596.6699,-73.6548 586.1466,-72.4259 593.6067,-79.949 596.6699,-73.6548"/>
<text text-anchor="middle" x="738.5101" y="-184.3645" font-family="Helvetica,sans-Serif" font-size="14.00" fill="#000000">:IsTaught</text>
</g>
<!-- S6 -->
<g id="node24" class="node">
<title>S6</title>
<ellipse fill="none" stroke="#000000" cx="1397.3327" cy="-188.5645" rx="113.7362" ry="41.0911"/>
<text text-anchor="middle" x="1397.3327" y="-201.1645" font-family="Helvetica,sans-Serif" font-size="14.00" fill="#000000">:Classroom</text>
<text text-anchor="start" x="1324.9926" y="-184.3645" font-family="Helvetica,sans-Serif" font-size="14.00" fill="#000000">ClassroomID: "S6",</text>
<text text-anchor="start" x="1324.9926" y="-167.5645" font-family="Helvetica,sans-Serif" font-size="14.00" fill="#000000">ClassroomCapacity: 30</text>
</g>
<!-- TH0855S6&#45;&gt;S6 -->
<g id="edge19" class="edge">
<title>TH0855S6-&gt;S6</title>
<path fill="none" stroke="#000000" d="M951.5936,-319.4193C997.7011,-310.8077 1049.0821,-301.7286 1096.3327,-294.5389 1162.7136,-284.4383 1182.6702,-297.8823 1246.3327,-276.5389 1278.26,-265.835 1310.8858,-247.8764 1337.6033,-230.9656"/>
<polygon fill="#000000" stroke="#000000" points="1339.5465,-233.8772 1346.0618,-225.5224 1335.7585,-227.9907 1339.5465,-233.8772"/>
<text text-anchor="middle" x="1323.8411" y="-263.9389" font-family="Helvetica,sans-Serif" font-size="14.00" fill="#000000">:TakesPlace</text>
</g>
<!-- MO0800 -->
<g id="node18" class="node">
<title>MO0800</title>
<ellipse fill="none" stroke="#000000" cx="1677.3327" cy="-188.5645" rx="148.3487" ry="53.3494"/>
<text text-anchor="middle" x="1677.3327" y="-209.5645" font-family="Helvetica,sans-Serif" font-size="14.00" fill="#000000">:TimeSlot</text>
<text text-anchor="start" x="1580.5577" y="-192.7645" font-family="Helvetica,sans-Serif" font-size="14.00" fill="#000000">TimeSlotBeginning: "08:00:00",</text>
<text text-anchor="start" x="1580.5577" y="-175.9645" font-family="Helvetica,sans-Serif" font-size="14.00" fill="#000000">TimeSlotEnd: "08:45:00"</text>
<text text-anchor="start" x="1580.5577" y="-159.1645" font-family="Helvetica,sans-Serif" font-size="14.00" fill="#000000">DayOfWeek: "Monday"</text>
</g>
<!-- MO0800S7&#45;&gt;MO0800 -->
<g id="edge21" class="edge">
<title>MO0800S7-&gt;MO0800</title>
<path fill="none" stroke="#000000" d="M1504.7781,-307.9639C1533.7254,-287.9338 1569.228,-263.3677 1600.4884,-241.737"/>
<polygon fill="#000000" stroke="#000000" points="1602.5277,-244.5822 1608.7594,-236.0139 1598.5446,-238.8259 1602.5277,-244.5822"/>
<text text-anchor="middle" x="1604.8881" y="-263.9389" font-family="Helvetica,sans-Serif" font-size="14.00" fill="#000000">:TakesTime</text>
</g>
<!-- English -->
<g id="node22" class="node">
<title>English</title>
<ellipse fill="none" stroke="#000000" cx="2625.3327" cy="-188.5645" rx="127.0038" ry="41.0911"/>
<text text-anchor="middle" x="2625.3327" y="-201.1645" font-family="Helvetica,sans-Serif" font-size="14.00" fill="#000000">:Subject</text>
<text text-anchor="start" x="2543.3522" y="-184.3645" font-family="Helvetica,sans-Serif" font-size="14.00" fill="#000000">SubjectID: "en",</text>
<text text-anchor="start" x="2543.3522" y="-167.5645" font-family="Helvetica,sans-Serif" font-size="14.00" fill="#000000">SubjectName: "Angličtina"</text>
</g>
<!-- MO0800S7&#45;&gt;English -->
<g id="edge23" class="edge">
<title>MO0800S7-&gt;English</title>
<path fill="none" stroke="#000000" d="M1561.4115,-313.7899C1591.6795,-306.1026 1624.5203,-298.9218 1655.3327,-294.5389 1900.5491,-259.6586 1966.731,-308.5946 2212.3327,-276.5389 2245.1928,-272.2501 2252.2495,-264.9387 2284.9779,-259.7389 2375.0245,-245.4326 2400.5636,-262.5503 2489.3327,-241.7389 2506.3549,-237.7482 2524.0757,-232.0486 2540.8833,-225.8504"/>
<polygon fill="#000000" stroke="#000000" points="2542.5462,-228.9636 2550.6617,-222.1526 2540.0701,-222.4161 2542.5462,-228.9636"/>
<text text-anchor="middle" x="2313.5101" y="-263.9389" font-family="Helvetica,sans-Serif" font-size="14.00" fill="#000000">:IsTaught</text>
</g>
<!-- S7 -->
<g id="node25" class="node">
<title>S7</title>
<ellipse fill="none" stroke="#000000" cx="891.3327" cy="-188.5645" rx="113.7362" ry="41.0911"/>
<text text-anchor="middle" x="891.3327" y="-201.1645" font-family="Helvetica,sans-Serif" font-size="14.00" fill="#000000">:Classroom</text>
<text text-anchor="start" x="818.9926" y="-184.3645" font-family="Helvetica,sans-Serif" font-size="14.00" fill="#000000">ClassroomID: "S7",</text>
<text text-anchor="start" x="818.9926" y="-167.5645" font-family="Helvetica,sans-Serif" font-size="14.00" fill="#000000">ClassroomCapacity: 28</text>
</g>
<!-- MO0800S7&#45;&gt;S7 -->
<g id="edge22" class="edge">
<title>MO0800S7-&gt;S7</title>
<path fill="none" stroke="#000000" d="M1431.2355,-306.0996C1422.2426,-288.676 1409.185,-270.0975 1391.3327,-259.7389 1354.9639,-238.6365 1054.2796,-251.2964 1013.3327,-241.7389 997.681,-238.0856 981.5273,-232.4916 966.3,-226.2811"/>
<polygon fill="#000000" stroke="#000000" points="967.5261,-222.9999 956.9514,-222.3465 964.8106,-229.4517 967.5261,-222.9999"/>
<text text-anchor="middle" x="1448.8411" y="-263.9389" font-family="Helvetica,sans-Serif" font-size="14.00" fill="#000000">:TakesPlace</text>
</g>
<!-- FR1000 -->
<g id="node20" class="node">
<title>FR1000</title>
<ellipse fill="none" stroke="#000000" cx="2086.3327" cy="-188.5645" rx="148.3487" ry="53.3494"/>
<text text-anchor="middle" x="2086.3327" y="-209.5645" font-family="Helvetica,sans-Serif" font-size="14.00" fill="#000000">:TimeSlot</text>
<text text-anchor="start" x="1989.5577" y="-192.7645" font-family="Helvetica,sans-Serif" font-size="14.00" fill="#000000">TimeSlotBeginning: "10:00:00",</text>
<text text-anchor="start" x="1989.5577" y="-175.9645" font-family="Helvetica,sans-Serif" font-size="14.00" fill="#000000">TimeSlotEnd: "10:45:00"</text>
<text text-anchor="start" x="1989.5577" y="-159.1645" font-family="Helvetica,sans-Serif" font-size="14.00" fill="#000000">DayOfWeek: "Friday"</text>
</g>
<!-- FR1000S9&#45;&gt;FR1000 -->
<g id="edge24" class="edge">
<title>FR1000S9-&gt;FR1000</title>
<path fill="none" stroke="#000000" d="M2207.0687,-315.6948C2182.9248,-305.7516 2159.0059,-292.9393 2139.2219,-276.5389 2130.3082,-269.1498 2122.5125,-259.8451 2115.8413,-250.0729"/>
<polygon fill="#000000" stroke="#000000" points="2118.6193,-247.9216 2110.2684,-241.4014 2112.7305,-251.7062 2118.6193,-247.9216"/>
<text text-anchor="middle" x="2174.8881" y="-263.9389" font-family="Helvetica,sans-Serif" font-size="14.00" fill="#000000">:TakesTime</text>
</g>
<!-- FR1000S9&#45;&gt;English -->
<g id="edge26" class="edge">
<title>FR1000S9-&gt;English</title>
<path fill="none" stroke="#000000" d="M2402.5019,-309.1879C2447.4302,-284.8671 2505.3726,-253.5016 2550.9103,-228.851"/>
<polygon fill="#000000" stroke="#000000" points="2552.7169,-231.853 2559.8449,-224.0145 2549.3845,-225.6971 2552.7169,-231.853"/>
<text text-anchor="middle" x="2515.5101" y="-263.9389" font-family="Helvetica,sans-Serif" font-size="14.00" fill="#000000">:IsTaught</text>
</g>
<!-- S9 -->
<g id="node26" class="node">
<title>S9</title>
<ellipse fill="none" stroke="#000000" cx="2366.3327" cy="-188.5645" rx="113.7362" ry="41.0911"/>
<text text-anchor="middle" x="2366.3327" y="-201.1645" font-family="Helvetica,sans-Serif" font-size="14.00" fill="#000000">:Classroom</text>
<text text-anchor="start" x="2293.9926" y="-184.3645" font-family="Helvetica,sans-Serif" font-size="14.00" fill="#000000">ClassroomID: "S9",</text>
<text text-anchor="start" x="2293.9926" y="-167.5645" font-family="Helvetica,sans-Serif" font-size="14.00" fill="#000000">ClassroomCapacity: 30</text>
</g>
<!-- FR1000S9&#45;&gt;S9 -->
<g id="edge25" class="edge">
<title>FR1000S9-&gt;S9</title>
<path fill="none" stroke="#000000" d="M2340.4371,-306.3143C2344.9134,-285.9603 2350.3501,-261.2391 2355.0841,-239.7131"/>
<polygon fill="#000000" stroke="#000000" points="2358.5441,-240.2747 2357.2738,-229.7563 2351.7075,-238.7711 2358.5441,-240.2747"/>
<text text-anchor="middle" x="2387.8411" y="-263.9389" font-family="Helvetica,sans-Serif" font-size="14.00" fill="#000000">:TakesPlace</text>
</g>
<!-- FR1000S6&#45;&gt;FR1000 -->
<g id="edge27" class="edge">
<title>FR1000S6-&gt;FR1000</title>
<path fill="none" stroke="#000000" d="M1917.5293,-307.9639C1945.7268,-288.019 1980.2827,-263.5767 2010.7683,-242.0133"/>
<polygon fill="#000000" stroke="#000000" points="2013.1072,-244.646 2019.2502,-236.0139 2009.0649,-238.9312 2013.1072,-244.646"/>
<text text-anchor="middle" x="2016.8881" y="-263.9389" font-family="Helvetica,sans-Serif" font-size="14.00" fill="#000000">:TakesTime</text>
</g>
<!-- Physics -->
<g id="node23" class="node">
<title>Physics</title>
<ellipse fill="none" stroke="#000000" cx="1624.3327" cy="-41.295" rx="111.6923" ry="41.0911"/>
<text text-anchor="middle" x="1624.3327" y="-53.895" font-family="Helvetica,sans-Serif" font-size="14.00" fill="#000000">:Subject</text>
<text text-anchor="start" x="1553.2456" y="-37.095" font-family="Helvetica,sans-Serif" font-size="14.00" fill="#000000">SubjectID: "ps",</text>
<text text-anchor="start" x="1553.2456" y="-20.295" font-family="Helvetica,sans-Serif" font-size="14.00" fill="#000000">SubjectName: "Fyzika"</text>
</g>
<!-- FR1000S6&#45;&gt;Physics -->
<g id="edge29" class="edge">
<title>FR1000S6-&gt;Physics</title>
<path fill="none" stroke="#000000" d="M1867.2517,-306.2277C1871.5196,-259.9543 1871.182,-185.0881 1834.3327,-135.3901 1809.2709,-101.5897 1769.2847,-79.6745 1730.8967,-65.5861"/>
<polygon fill="#000000" stroke="#000000" points="1731.7763,-62.1854 1721.1815,-62.1705 1729.4546,-68.7892 1731.7763,-62.1854"/>
<text text-anchor="middle" x="1896.5101" y="-184.3645" font-family="Helvetica,sans-Serif" font-size="14.00" fill="#000000">:IsTaught</text>
</g>
<!-- FR1000S6&#45;&gt;S6 -->
<g id="edge28" class="edge">
<title>FR1000S6-&gt;S6</title>
<path fill="none" stroke="#000000" d="M1781.9157,-309.9331C1741.7793,-292.2505 1691.8363,-272.354 1645.3327,-259.7389 1591.1618,-245.044 1574.3441,-257.0092 1520.3327,-241.7389 1505.3659,-237.5075 1489.8277,-231.8596 1475.0371,-225.8236"/>
<polygon fill="#000000" stroke="#000000" points="1476.0154,-222.4392 1465.4391,-221.8121 1473.316,-228.8977 1476.0154,-222.4392"/>
<text text-anchor="middle" x="1731.8411" y="-263.9389" font-family="Helvetica,sans-Serif" font-size="14.00" fill="#000000">:TakesPlace</text>
</g>
<!-- TH0855S7 -->
<g id="node11" class="node">
<title>TH0855S7</title>
<ellipse fill="none" stroke="#000000" cx="397.3327" cy="-347.7134" rx="196.6378" ry="41.0911"/>
<text text-anchor="middle" x="397.3327" y="-360.3134" font-family="Helvetica,sans-Serif" font-size="14.00" fill="#000000">:Lesson</text>
<text text-anchor="start" x="266.3375" y="-343.5134" font-family="Helvetica,sans-Serif" font-size="14.00" fill="#000000">LessonUrl: "https://zoom.com/TH0855S7",</text>
<text text-anchor="start" x="266.3375" y="-326.7134" font-family="Helvetica,sans-Serif" font-size="14.00" fill="#000000">LessonID: "TH0855S7"</text>
</g>
<!-- TH0855S7&#45;&gt;TH0855 -->
<g id="edge30" class="edge">
<title>TH0855S7-&gt;TH0855</title>
<path fill="none" stroke="#000000" d="M394.156,-306.3327C394.7731,-290.7406 397.7846,-273.473 406.2219,-259.7389 410.9772,-251.9983 416.9254,-244.9479 423.583,-238.5597"/>
<polygon fill="#000000" stroke="#000000" points="425.9309,-241.1554 431.0626,-231.8863 421.2707,-235.9321 425.9309,-241.1554"/>
<text text-anchor="middle" x="441.8881" y="-263.9389" font-family="Helvetica,sans-Serif" font-size="14.00" fill="#000000">:TakesTime</text>
</g>
<!-- TH0855S7&#45;&gt;Math -->
<g id="edge32" class="edge">
<title>TH0855S7-&gt;Math</title>
<path fill="none" stroke="#000000" d="M348.4245,-307.6808C330.1911,-289.6663 311.5971,-266.8106 301.9779,-241.7389 285.0467,-197.6093 276.8322,-175.4124 301.9779,-135.3901 320.5703,-105.7981 351.3687,-85.2943 383.0753,-71.1789"/>
<polygon fill="#000000" stroke="#000000" points="384.6454,-74.3147 392.4805,-67.1829 381.9081,-67.872 384.6454,-74.3147"/>
<text text-anchor="middle" x="331.5101" y="-184.3645" font-family="Helvetica,sans-Serif" font-size="14.00" fill="#000000">:IsTaught</text>
</g>
<!-- TH0855S7&#45;&gt;S7 -->
<g id="edge31" class="edge">
<title>TH0855S7-&gt;S7</title>
<path fill="none" stroke="#000000" d="M442.8233,-307.5166C466.9949,-287.087 494.6694,-265.3915 509.3159,-259.7389 614.9047,-218.9886 653.1917,-267.7879 763.3327,-241.7389 779.9719,-237.8037 797.2353,-231.9565 813.4945,-225.5619"/>
<polygon fill="#000000" stroke="#000000" points="814.98,-228.7366 822.9394,-221.7439 812.3565,-222.2468 814.98,-228.7366"/>
<text text-anchor="middle" x="546.8411" y="-263.9389" font-family="Helvetica,sans-Serif" font-size="14.00" fill="#000000">:TakesPlace</text>
</g>
<!-- kovpe -->
<g id="node12" class="node">
<title>kovpe</title>
<ellipse fill="none" stroke="#000000" cx="128.3327" cy="-506.8622" rx="99.3854" ry="41.0911"/>
<text text-anchor="middle" x="128.3327" y="-519.4622" font-family="Helvetica,sans-Serif" font-size="14.00" fill="#000000">:Student</text>
<text text-anchor="start" x="66.193" y="-502.6622" font-family="Helvetica,sans-Serif" font-size="14.00" fill="#000000">ID: "kovpe",</text>
<text text-anchor="start" x="66.193" y="-485.8622" font-family="Helvetica,sans-Serif" font-size="14.00" fill="#000000">name: "Petr Kovář"</text>
</g>
<!-- kovpe&#45;&gt;_6A -->
<g id="edge11" class="edge">
<title>kovpe-&gt;_6A</title>
<path fill="none" stroke="#000000" d="M128.3327,-465.4632C128.3327,-445.2804 128.3327,-420.8036 128.3327,-399.406"/>
<polygon fill="#000000" stroke="#000000" points="131.8328,-399.1812 128.3327,-389.1813 124.8328,-399.1813 131.8328,-399.1812"/>
<text text-anchor="middle" x="163.7324" y="-423.0878" font-family="Helvetica,sans-Serif" font-size="14.00" fill="#000000">:BelongsTo</text>
</g>
<!-- kliji -->
<g id="node13" class="node">
<title>kliji</title>
<ellipse fill="none" stroke="#000000" cx="1160.3327" cy="-506.8622" rx="112.8403" ry="53.3494"/>
<text text-anchor="middle" x="1160.3327" y="-527.8622" font-family="Helvetica,sans-Serif" font-size="14.00" fill="#000000">:Student</text>
<text text-anchor="start" x="1088.4861" y="-511.0622" font-family="Helvetica,sans-Serif" font-size="14.00" fill="#000000">ID: "kliji",</text>
<text text-anchor="start" x="1088.4861" y="-494.2622" font-family="Helvetica,sans-Serif" font-size="14.00" fill="#000000">name: "Jiří Klimošek"</text>
<text text-anchor="start" x="1088.4861" y="-477.4622" font-family="Helvetica,sans-Serif" font-size="14.00" fill="#000000">nickname: ["Limoš"]</text>
</g>
<!-- kliji&#45;&gt;_6B -->
<g id="edge12" class="edge">
<title>kliji-&gt;_6B</title>
<path fill="none" stroke="#000000" d="M1160.3327,-453.4252C1160.3327,-436.076 1160.3327,-416.8621 1160.3327,-399.6258"/>
<polygon fill="#000000" stroke="#000000" points="1163.8328,-399.1837 1160.3327,-389.1837 1156.8328,-399.1837 1163.8328,-399.1837"/>
<text text-anchor="middle" x="1195.7324" y="-423.0878" font-family="Helvetica,sans-Serif" font-size="14.00" fill="#000000">:BelongsTo</text>
</g>
<!-- novpa -->
<g id="node14" class="node">
<title>novpa</title>
<ellipse fill="none" stroke="#000000" cx="2655.3327" cy="-666.0111" rx="133.974" ry="53.3494"/>
<text text-anchor="middle" x="2655.3327" y="-687.0111" font-family="Helvetica,sans-Serif" font-size="14.00" fill="#000000">:Student</text>
<text text-anchor="start" x="2568.7665" y="-670.2111" font-family="Helvetica,sans-Serif" font-size="14.00" fill="#000000">ID: "novpa",</text>
<text text-anchor="start" x="2568.7665" y="-653.4111" font-family="Helvetica,sans-Serif" font-size="14.00" fill="#000000">name: "Pavel Novák"</text>
<text text-anchor="start" x="2568.7665" y="-636.6111" font-family="Helvetica,sans-Serif" font-size="14.00" fill="#000000">nickname: ["Kajak", "Bizon"]</text>
</g>
<!-- novpa&#45;&gt;_4C -->
<g id="edge13" class="edge">
<title>novpa-&gt;_4C</title>
<path fill="none" stroke="#000000" d="M2655.3327,-612.5741C2655.3327,-595.2249 2655.3327,-576.011 2655.3327,-558.7747"/>
<polygon fill="#000000" stroke="#000000" points="2658.8328,-558.3325 2655.3327,-548.3326 2651.8328,-558.3326 2658.8328,-558.3325"/>
<text text-anchor="middle" x="2690.7324" y="-582.2367" font-family="Helvetica,sans-Serif" font-size="14.00" fill="#000000">:BelongsTo</text>
</g>
<!-- muk&#45;&gt;Math -->
<g id="edge14" class="edge">
<title>muk-&gt;Math</title>
<path fill="none" stroke="#000000" d="M171.3402,-138.2293C185.7324,-124.1482 202.7378,-110.1091 220.7591,-100.5901 263.0332,-78.2605 313.1538,-64.339 359.0388,-55.66"/>
<polygon fill="#000000" stroke="#000000" points="359.8555,-59.0689 369.0661,-53.8329 358.6007,-52.1823 359.8555,-59.0689"/>
<text text-anchor="middle" x="250.1195" y="-104.7901" font-family="Helvetica,sans-Serif" font-size="14.00" fill="#000000">:Teaches</text>
</g>
<!-- pel&#45;&gt;Math -->
<g id="edge15" class="edge">
<title>pel-&gt;Math</title>
<path fill="none" stroke="#000000" d="M1058.869,-150.6738C1044.1965,-145.0183 1028.9618,-139.6626 1014.3327,-135.3901 887.0781,-98.2249 737.7122,-72.9342 632.3384,-58.012"/>
<polygon fill="#000000" stroke="#000000" points="632.6699,-54.5243 622.2805,-56.6003 631.6969,-61.4564 632.6699,-54.5243"/>
<text text-anchor="middle" x="974.1195" y="-104.7901" font-family="Helvetica,sans-Serif" font-size="14.00" fill="#000000">:Teaches</text>
</g>
<!-- pel&#45;&gt;Physics -->
<g id="edge16" class="edge">
<title>pel-&gt;Physics</title>
<path fill="none" stroke="#000000" d="M1231.1746,-151.2871C1245.4806,-145.6546 1260.2389,-140.146 1274.3327,-135.3901 1355.615,-107.9613 1449.5906,-83.0598 1519.6855,-65.7734"/>
<polygon fill="#000000" stroke="#000000" points="1520.5366,-69.1684 1529.4138,-63.3852 1518.8677,-62.3703 1520.5366,-69.1684"/>
<text text-anchor="middle" x="1407.1195" y="-104.7901" font-family="Helvetica,sans-Serif" font-size="14.00" fill="#000000">:Teaches</text>
</g>
<!-- svo&#45;&gt;English -->
<g id="edge17" class="edge">
<title>svo-&gt;English</title>
<path fill="none" stroke="#000000" d="M2649.3452,-294.7191C2645.3442,-277.0315 2640.8955,-257.3645 2636.9251,-239.8122"/>
<polygon fill="#000000" stroke="#000000" points="2640.2698,-238.7344 2634.6496,-229.753 2633.4423,-240.2788 2640.2698,-238.7344"/>
<text text-anchor="middle" x="2673.1195" y="-263.9389" font-family="Helvetica,sans-Serif" font-size="14.00" fill="#000000">:Teaches</text>
</g>
</g>
</svg>