<svg xmlns="http://www.w3.org/2000/svg" width="1137.870849609375" height="894.2992553710938" viewBox="-540.26611328125 -414.8330078125 1137.870849609375 894.2992553710938"><title>Neo4j Graph Visualization</title><desc>Created using Neo4j (http://www.neo4j.com/)</desc><g class="layer relationships"><g class="relationship" transform="translate(-471.55420968756164 213.42417933266054) rotate(382.0166101943945)"><path class="b-outline" fill="#A5ABB6" stroke="none" d="M 32.5 0.5 L 46.81283848996955 0.5 L 46.81283848996955 -0.5 L 32.5 -0.5 Z M 108.40268223996955 0.5 L 122.7155207299391 0.5 L 122.7155207299391 3.5 L 129.7155207299391 0 L 122.7155207299391 -3.5 L 122.7155207299391 -0.5 L 108.40268223996955 -0.5 Z"/><text text-anchor="middle" pointer-events="none" font-size="8px" fill="#000000" x="77.60776036496955" y="3" font-family="Helvetica Neue, Helvetica, Arial, sans-serif">BelongingClass</text></g><g class="relationship" transform="translate(-471.55420968756164 213.42417933266054) rotate(261.3418748363234)"><path class="b-outline" fill="#A5ABB6" stroke="none" d="M 32.5 0.5 L 44.25045107833748 0.5 L 44.25045107833748 -0.5 L 32.5 -0.5 Z M 105.40670107833748 0.5 L 117.15715215667495 0.5 L 117.15715215667495 3.5 L 124.15715215667495 0 L 117.15715215667495 -3.5 L 117.15715215667495 -0.5 L 105.40670107833748 -0.5 Z"/><text text-anchor="middle" pointer-events="none" font-size="8px" fill="#000000" x="74.82857607833748" y="3" transform="rotate(180 74.82857607833748 0)" font-family="Helvetica Neue, Helvetica, Arial, sans-serif">PlannedLesson</text></g><g class="relationship" transform="translate(35.51675248020084 -42.682405023851025) rotate(220.734591410458)"><path class="b-outline" fill="#A5ABB6" stroke="none" d="M 32.5 0.5 L 88.23370177476907 0.5 L 88.23370177476907 -0.5 L 32.5 -0.5 Z M 149.8235455247691 0.5 L 205.55724729953815 0.5 L 205.55724729953815 3.5 L 212.55724729953815 0 L 205.55724729953815 -3.5 L 205.55724729953815 -0.5 L 149.8235455247691 -0.5 Z"/><text text-anchor="middle" pointer-events="none" font-size="8px" fill="#000000" x="119.02862364976907" y="3" transform="rotate(180 119.02862364976907 0)" font-family="Helvetica Neue, Helvetica, Arial, sans-serif">BelongingClass</text></g><g class="relationship" transform="translate(35.51675248020084 -42.682405023851025) rotate(465.92690824357663)"><path class="b-outline" fill="#A5ABB6" stroke="none" d="M 32.5 0.5 L 88.5381793322506 0.5 L 88.5381793322506 -0.5 L 32.5 -0.5 Z M 149.6944293322506 0.5 L 205.7326086645012 0.5 L 205.7326086645012 3.5 L 212.7326086645012 0 L 205.7326086645012 -3.5 L 205.7326086645012 -0.5 L 149.6944293322506 -0.5 Z"/><text text-anchor="middle" pointer-events="none" font-size="8px" fill="#000000" x="119.1163043322506" y="3" transform="rotate(180 119.1163043322506 0)" font-family="Helvetica Neue, Helvetica, Arial, sans-serif">PlannedLesson</text></g><g class="relationship" transform="translate(35.51675248020084 -42.682405023851025) rotate(287.09997710193335)"><path class="b-outline" fill="#A5ABB6" stroke="none" d="M 32.5 0.5 L 69.75787337114282 0.5 L 69.75787337114282 -0.5 L 32.5 -0.5 Z M 130.9141233711428 0.5 L 168.17199674228564 0.5 L 168.17199674228564 3.5 L 175.17199674228564 0 L 168.17199674228564 -3.5 L 168.17199674228564 -0.5 L 130.9141233711428 -0.5 Z"/><text text-anchor="middle" pointer-events="none" font-size="8px" fill="#000000" x="100.33599837114282" y="3" font-family="Helvetica Neue, Helvetica, Arial, sans-serif">PlannedLesson</text></g><g class="relationship" transform="translate(335.22799894583164 187.5692036173157) rotate(311.18349510161374)"><path class="b-outline" fill="#A5ABB6" stroke="none" d="M 32.5 0.5 L 46.28067465107473 0.5 L 46.28067465107473 -0.5 L 32.5 -0.5 Z M 107.87051840107473 0.5 L 121.65119305214947 0.5 L 121.65119305214947 3.5 L 128.65119305214947 0 L 121.65119305214947 -3.5 L 121.65119305214947 -0.5 L 107.87051840107473 -0.5 Z"/><text text-anchor="middle" pointer-events="none" font-size="8px" fill="#000000" x="77.07559652607473" y="3" font-family="Helvetica Neue, Helvetica, Arial, sans-serif">BelongingClass</text></g><g class="relationship" transform="translate(335.22799894583164 187.5692036173157) rotate(227.6503434750408)"><path class="b-outline" fill="#A5ABB6" stroke="none" d="M 32.5 0.5 L 51.85248570440136 0.5 L 51.85248570440136 -0.5 L 32.5 -0.5 Z M 113.00873570440136 0.5 L 132.36122140880272 0.5 L 132.36122140880272 3.5 L 139.36122140880272 0 L 132.36122140880272 -3.5 L 132.36122140880272 -0.5 L 113.00873570440136 -0.5 Z"/><text text-anchor="middle" pointer-events="none" font-size="8px" fill="#000000" x="82.43061070440136" y="3" transform="rotate(180 82.43061070440136 0)" font-family="Helvetica Neue, Helvetica, Arial, sans-serif">PlannedLesson</text></g><g class="relationship" transform="translate(-321.1682207378191 274.23478279367896) rotate(285.92060049648126)"><path class="b-outline" fill="#A5ABB6" stroke="none" d="M 32.5 0.5 L 79.87454629113182 0.5 L 79.87454629113182 -0.5 L 32.5 -0.5 Z M 134.33939004113182 0.5 L 181.71393633226364 0.5 L 181.71393633226364 3.5 L 188.71393633226364 0 L 181.71393633226364 -3.5 L 181.71393633226364 -0.5 L 134.33939004113182 -0.5 Z"/><text text-anchor="middle" pointer-events="none" font-size="8px" fill="#000000" x="107.10696816613182" y="3" font-family="Helvetica Neue, Helvetica, Arial, sans-serif">ClassTeacher</text></g><g class="relationship" transform="translate(-150.17304961512656 -202.59598121994873) rotate(471.14462267238525)"><path class="b-outline" fill="#A5ABB6" stroke="none" d="M 32.5 0.5 L 52.86159317546331 0.5 L 52.86159317546331 -0.5 L 32.5 -0.5 Z M 107.32643692546331 0.5 L 127.68803010092662 0.5 L 127.68803010092662 3.5 L 134.68803010092662 0 L 127.68803010092662 -3.5 L 127.68803010092662 -0.5 L 107.32643692546331 -0.5 Z"/><text text-anchor="middle" pointer-events="none" font-size="8px" fill="#000000" x="80.09401505046331" y="3" transform="rotate(180 80.09401505046331 0)" font-family="Helvetica Neue, Helvetica, Arial, sans-serif">ClassTeacher</text></g><g class="relationship" transform="translate(441.34165829425524 66.28607073471797) rotate(262.1743108812715)"><path class="b-outline" fill="#A5ABB6" stroke="none" d="M 32.5 0.5 L 51.887971268150835 0.5 L 51.887971268150835 -0.5 L 32.5 -0.5 Z M 106.35281501815084 0.5 L 125.74078628630167 0.5 L 125.74078628630167 3.5 L 132.74078628630167 0 L 125.74078628630167 -3.5 L 125.74078628630167 -0.5 L 106.35281501815084 -0.5 Z"/><text text-anchor="middle" pointer-events="none" font-size="8px" fill="#000000" x="79.12039314315084" y="3" transform="rotate(180 79.12039314315084 0)" font-family="Helvetica Neue, Helvetica, Arial, sans-serif">ClassTeacher</text></g><g class="relationship" transform="translate(-496.2661541225442 51.1377337913521) rotate(321.9656988075204)"><path class="b-outline" fill="#A5ABB6" stroke="none" d="M 40 0.5 L 78.54901155752833 0.5 L 78.54901155752833 -0.5 L 40 -0.5 Z M 114.79119905752833 0.5 L 153.34021061505666 0.5 L 153.34021061505666 3.5 L 160.34021061505666 0 L 153.34021061505666 -3.5 L 153.34021061505666 -0.5 L 114.79119905752833 -0.5 Z"/><text text-anchor="middle" pointer-events="none" font-size="8px" fill="#000000" x="96.67010530752833" y="3" font-family="Helvetica Neue, Helvetica, Arial, sans-serif">IsTaught</text></g><g class="relationship" transform="translate(-496.2661541225442 51.1377337913521) rotate(381.6432562931227)"><path class="b-outline" fill="#A5ABB6" stroke="none" d="M 40 0.5 L 139.80227396258917 0.5 L 139.80227396258917 -0.5 L 40 -0.5 Z M 186.71243021258917 0.5 L 286.51470417517834 0.5 L 286.51470417517834 3.5 L 293.51470417517834 0 L 286.51470417517834 -3.5 L 286.51470417517834 -0.5 L 186.71243021258917 -0.5 Z"/><text text-anchor="middle" pointer-events="none" font-size="8px" fill="#000000" x="163.25735208758917" y="3" font-family="Helvetica Neue, Helvetica, Arial, sans-serif">TakesPlace</text></g><g class="relationship" transform="translate(-496.2661541225442 51.1377337913521) rotate(274.0337010011615)"><path class="b-outline" fill="#A5ABB6" stroke="none" d="M 40 0.5 L 96.01261518582746 0.5 L 96.01261518582746 -0.5 L 40 -0.5 Z M 140.39152143582746 0.5 L 196.4041366216549 0.5 L 196.4041366216549 3.5 L 203.4041366216549 0 L 196.4041366216549 -3.5 L 196.4041366216549 -0.5 L 140.39152143582746 -0.5 Z"/><text text-anchor="middle" pointer-events="none" font-size="8px" fill="#000000" x="118.20206831082746" y="3" font-family="Helvetica Neue, Helvetica, Arial, sans-serif">TakesTime</text></g><g class="relationship" transform="translate(98.7859141918939 -248.342321775662) rotate(201.24510267418918)"><path class="b-outline" fill="#A5ABB6" stroke="none" d="M 40 0.5 L 82.53943945057883 0.5 L 82.53943945057883 -0.5 L 40 -0.5 Z M 129.4495957005788 0.5 L 171.98903515115765 0.5 L 171.98903515115765 3.5 L 178.98903515115765 0 L 171.98903515115765 -3.5 L 171.98903515115765 -0.5 L 129.4495957005788 -0.5 Z"/><text text-anchor="middle" pointer-events="none" font-size="8px" fill="#000000" x="105.99451757557883" y="3" transform="rotate(180 105.99451757557883 0)" font-family="Helvetica Neue, Helvetica, Arial, sans-serif">TakesPlace</text></g><g class="relationship" transform="translate(98.7859141918939 -248.342321775662) rotate(301.6595204175269)"><path class="b-outline" fill="#A5ABB6" stroke="none" d="M 40 0.5 L 62.575098947921504 0.5 L 62.575098947921504 -0.5 L 40 -0.5 Z M 106.9540051979215 0.5 L 129.529104145843 0.5 L 129.529104145843 3.5 L 136.529104145843 0 L 129.529104145843 -3.5 L 129.529104145843 -0.5 L 106.9540051979215 -0.5 Z"/><text text-anchor="middle" pointer-events="none" font-size="8px" fill="#000000" x="84.7645520729215" y="3" font-family="Helvetica Neue, Helvetica, Arial, sans-serif">TakesTime</text></g><g class="relationship" transform="translate(98.7859141918939 -248.342321775662) rotate(389.5102889442508)"><path class="b-outline" fill="#A5ABB6" stroke="none" d="M 40 0.5 L 79.97088019083222 0.5 L 79.97088019083222 -0.5 L 40 -0.5 Z M 116.21306769083222 0.5 L 156.18394788166444 0.5 L 156.18394788166444 3.5 L 163.18394788166444 0 L 156.18394788166444 -3.5 L 156.18394788166444 -0.5 L 116.21306769083222 -0.5 Z"/><text text-anchor="middle" pointer-events="none" font-size="8px" fill="#000000" x="98.09197394083222" y="3" font-family="Helvetica Neue, Helvetica, Arial, sans-serif">IsTaught</text></g><g class="relationship" transform="translate(214.40072444013185 55.012734590784135) rotate(472.3695970534201)"><path class="b-outline" fill="#A5ABB6" stroke="none" d="M 40 0.5 L 71.59006916875417 0.5 L 71.59006916875417 -0.5 L 40 -0.5 Z M 115.96897541875417 0.5 L 147.55904458750834 0.5 L 147.55904458750834 3.5 L 154.55904458750834 0 L 147.55904458750834 -3.5 L 147.55904458750834 -0.5 L 115.96897541875417 -0.5 Z"/><text text-anchor="middle" pointer-events="none" font-size="8px" fill="#000000" x="93.77952229375417" y="3" transform="rotate(180 93.77952229375417 0)" font-family="Helvetica Neue, Helvetica, Arial, sans-serif">TakesTime</text></g><g class="relationship" transform="translate(214.40072444013185 55.012734590784135) rotate(284.79999664581294)"><path class="b-outline" fill="#A5ABB6" stroke="none" d="M 40 0.5 L 89.16245884804135 0.5 L 89.16245884804135 -0.5 L 40 -0.5 Z M 125.40464634804135 0.5 L 174.5671051960827 0.5 L 174.5671051960827 3.5 L 181.5671051960827 0 L 174.5671051960827 -3.5 L 174.5671051960827 -0.5 L 125.40464634804135 -0.5 Z"/><text text-anchor="middle" pointer-events="none" font-size="8px" fill="#000000" x="107.28355259804135" y="3" font-family="Helvetica Neue, Helvetica, Arial, sans-serif">IsTaught</text></g><g class="relationship" transform="translate(214.40072444013185 55.012734590784135) rotate(513.168242400024)"><path class="b-outline" fill="#A5ABB6" stroke="none" d="M 40 0.5 L 44.74745090811314 0.5 L 44.74745090811314 -0.5 L 40 -0.5 Z M 91.65760715811314 0.5 L 96.40505806622627 0.5 L 96.40505806622627 3.5 L 103.40505806622627 0 L 96.40505806622627 -3.5 L 96.40505806622627 -0.5 L 91.65760715811314 -0.5 Z"/><text text-anchor="middle" pointer-events="none" font-size="8px" fill="#000000" x="68.20252903311314" y="3" transform="rotate(180 68.20252903311314 0)" font-family="Helvetica Neue, Helvetica, Arial, sans-serif">TakesPlace</text></g><g class="relationship" transform="translate(-33.835819557628746 200.34844123666292) rotate(366.56732511293546)"><path class="b-outline" fill="#A5ABB6" stroke="none" d="M 40 0.5 L 72.35468956778934 0.5 L 72.35468956778934 -0.5 L 40 -0.5 Z M 116.73359581778934 0.5 L 149.08828538557867 0.5 L 149.08828538557867 3.5 L 156.08828538557867 0 L 149.08828538557867 -3.5 L 149.08828538557867 -0.5 L 116.73359581778934 -0.5 Z"/><text text-anchor="middle" pointer-events="none" font-size="8px" fill="#000000" x="94.54414269278934" y="3" font-family="Helvetica Neue, Helvetica, Arial, sans-serif">TakesTime</text></g><g class="relationship" transform="translate(-33.835819557628746 200.34844123666292) rotate(247.093100380264)"><path class="b-outline" fill="#A5ABB6" stroke="none" d="M 40 0.5 L 67.18886839291523 0.5 L 67.18886839291523 -0.5 L 40 -0.5 Z M 103.43105589291523 0.5 L 130.61992428583045 0.5 L 130.61992428583045 3.5 L 137.61992428583045 0 L 130.61992428583045 -3.5 L 130.61992428583045 -0.5 L 103.43105589291523 -0.5 Z"/><text text-anchor="middle" pointer-events="none" font-size="8px" fill="#000000" x="85.30996214291523" y="3" transform="rotate(180 85.30996214291523 0)" font-family="Helvetica Neue, Helvetica, Arial, sans-serif">IsTaught</text></g><g class="relationship" transform="translate(-33.835819557628746 200.34844123666292) rotate(190.29998234469696)"><path class="b-outline" fill="#A5ABB6" stroke="none" d="M 40 0.5 L 57.800428730251 0.5 L 57.800428730251 -0.5 L 40 -0.5 Z M 104.710584980251 0.5 L 122.511013710502 0.5 L 122.511013710502 3.5 L 129.511013710502 0 L 122.511013710502 -3.5 L 122.511013710502 -0.5 L 104.710584980251 -0.5 Z"/><text text-anchor="middle" pointer-events="none" font-size="8px" fill="#000000" x="81.255506855251" y="3" transform="rotate(180 81.255506855251 0)" font-family="Helvetica Neue, Helvetica, Arial, sans-serif">TakesPlace</text></g><g class="relationship" transform="translate(-313.8926329807805 -291.6230696456906) rotate(505.35449314617347)"><path class="b-outline" fill="#A5ABB6" stroke="none" d="M 40 0.5 L 82.88618185602407 0.5 L 82.88618185602407 -0.5 L 40 -0.5 Z M 127.26508810602407 0.5 L 170.15126996204813 0.5 L 170.15126996204813 3.5 L 177.15126996204813 0 L 170.15126996204813 -3.5 L 170.15126996204813 -0.5 L 127.26508810602407 -0.5 Z"/><text text-anchor="middle" pointer-events="none" font-size="8px" fill="#000000" x="105.07563498102407" y="3" transform="rotate(180 105.07563498102407 0)" font-family="Helvetica Neue, Helvetica, Arial, sans-serif">TakesTime</text></g><g class="relationship" transform="translate(-313.8926329807805 -291.6230696456906) rotate(351.20435338860966)"><path class="b-outline" fill="#A5ABB6" stroke="none" d="M 40 0.5 L 85.85878821126876 0.5 L 85.85878821126876 -0.5 L 40 -0.5 Z M 132.76894446126875 0.5 L 178.62773267253752 0.5 L 178.62773267253752 3.5 L 185.62773267253752 0 L 178.62773267253752 -3.5 L 178.62773267253752 -0.5 L 132.76894446126875 -0.5 Z"/><text text-anchor="middle" pointer-events="none" font-size="8px" fill="#000000" x="109.31386633626876" y="3" font-family="Helvetica Neue, Helvetica, Arial, sans-serif">TakesPlace</text></g><g class="relationship" transform="translate(-313.8926329807805 -291.6230696456906) rotate(457.7517110714942)"><path class="b-outline" fill="#A5ABB6" stroke="none" d="M 40 0.5 L 95.13434584789991 0.5 L 95.13434584789991 -0.5 L 40 -0.5 Z M 131.3765333478999 0.5 L 186.51087919579982 0.5 L 186.51087919579982 3.5 L 193.51087919579982 0 L 186.51087919579982 -3.5 L 186.51087919579982 -0.5 L 131.3765333478999 -0.5 Z"/><text text-anchor="middle" pointer-events="none" font-size="8px" fill="#000000" x="113.25543959789991" y="3" transform="rotate(180 113.25543959789991 0)" font-family="Helvetica Neue, Helvetica, Arial, sans-serif">IsTaught</text></g><g class="relationship" transform="translate(-229.15931904407464 408.9662266493169) rotate(235.67059948237898)"><path class="b-outline" fill="#A5ABB6" stroke="none" d="M 32.5 0.5 L 56.39573765107424 0.5 L 56.39573765107424 -0.5 L 32.5 -0.5 Z M 99.75511265107424 0.5 L 123.65085030214848 0.5 L 123.65085030214848 3.5 L 130.65085030214848 0 L 123.65085030214848 -3.5 L 123.65085030214848 -0.5 L 99.75511265107424 -0.5 Z"/><text text-anchor="middle" pointer-events="none" font-size="8px" fill="#000000" x="78.07542515107424" y="3" transform="rotate(180 78.07542515107424 0)" font-family="Helvetica Neue, Helvetica, Arial, sans-serif">BelongsTo</text></g><g class="relationship" transform="translate(-1.276384976178548 -208.11009051306866) rotate(537.8791272476058)"><path class="b-outline" fill="#A5ABB6" stroke="none" d="M 32.5 0.5 L 49.3196785072014 0.5 L 49.3196785072014 -0.5 L 32.5 -0.5 Z M 92.6790535072014 0.5 L 109.4987320144028 0.5 L 109.4987320144028 3.5 L 116.4987320144028 0 L 109.4987320144028 -3.5 L 109.4987320144028 -0.5 L 92.6790535072014 -0.5 Z"/><text text-anchor="middle" pointer-events="none" font-size="8px" fill="#000000" x="70.9993660072014" y="3" transform="rotate(180 70.9993660072014 0)" font-family="Helvetica Neue, Helvetica, Arial, sans-serif">BelongsTo</text></g><g class="relationship" transform="translate(565.1047468325779 -28.644971744895113) rotate(502.5104083459511)"><path class="b-outline" fill="#A5ABB6" stroke="none" d="M 32.5 0.5 L 52.809422173740344 0.5 L 52.809422173740344 -0.5 L 32.5 -0.5 Z M 96.16879717374034 0.5 L 116.47821934748069 0.5 L 116.47821934748069 3.5 L 123.47821934748069 0 L 116.47821934748069 -3.5 L 116.47821934748069 -0.5 L 96.16879717374034 -0.5 Z"/><text text-anchor="middle" pointer-events="none" font-size="8px" fill="#000000" x="74.48910967374034" y="3" transform="rotate(180 74.48910967374034 0)" font-family="Helvetica Neue, Helvetica, Arial, sans-serif">BelongsTo</text></g><g class="relationship" transform="translate(-260.48813377040574 61.50600553671748) rotate(237.0011822619016)"><path class="b-outline" fill="#A5ABB6" stroke="none" d="M 32.5 0.5 L 55.61736986615591 0.5 L 55.61736986615591 -0.5 L 32.5 -0.5 Z M 91.41424486615591 0.5 L 114.53161473231182 0.5 L 114.53161473231182 3.5 L 121.53161473231182 0 L 114.53161473231182 -3.5 L 114.53161473231182 -0.5 L 91.41424486615591 -0.5 Z"/><text text-anchor="middle" pointer-events="none" font-size="8px" fill="#000000" x="73.51580736615591" y="3" transform="rotate(180 73.51580736615591 0)" font-family="Helvetica Neue, Helvetica, Arial, sans-serif">Teaches</text></g><g class="relationship" transform="translate(-210.48166668327215 -46.664239370009405) rotate(399.2761851049636)"><path class="b-outline" fill="#A5ABB6" stroke="none" d="M 32.5 0.5 L 49.928751028420095 0.5 L 49.928751028420095 -0.5 L 32.5 -0.5 Z M 85.7256260284201 0.5 L 103.15437705684019 0.5 L 103.15437705684019 3.5 L 110.15437705684019 0 L 103.15437705684019 -3.5 L 103.15437705684019 -0.5 L 85.7256260284201 -0.5 Z"/><text text-anchor="middle" pointer-events="none" font-size="8px" fill="#000000" x="67.8271885284201" y="3" font-family="Helvetica Neue, Helvetica, Arial, sans-serif">Teaches</text></g><g class="relationship" transform="translate(-210.48166668327215 -46.664239370009405) rotate(188.9191295936713)"><path class="b-outline" fill="#A5ABB6" stroke="none" d="M 32.5 0.5 L 46.36870793966759 0.5 L 46.36870793966759 -0.5 L 32.5 -0.5 Z M 82.16558293966759 0.5 L 96.03429087933517 0.5 L 96.03429087933517 3.5 L 103.03429087933517 0 L 96.03429087933517 -3.5 L 96.03429087933517 -0.5 L 82.16558293966759 -0.5 Z"/><text text-anchor="middle" pointer-events="none" font-size="8px" fill="#000000" x="64.26714543966759" y="3" transform="rotate(180 64.26714543966759 0)" font-family="Helvetica Neue, Helvetica, Arial, sans-serif">Teaches</text></g><g class="relationship" transform="translate(418.84251080808303 -97.41581017967682) rotate(200.00967080948595)"><path class="b-outline" fill="#A5ABB6" stroke="none" d="M 32.5 0.5 L 58.29169956544641 0.5 L 58.29169956544641 -0.5 L 32.5 -0.5 Z M 94.08857456544641 0.5 L 119.88027413089281 0.5 L 119.88027413089281 3.5 L 126.88027413089281 0 L 119.88027413089281 -3.5 L 119.88027413089281 -0.5 L 94.08857456544641 -0.5 Z"/><text text-anchor="middle" pointer-events="none" font-size="8px" fill="#000000" x="76.19013706544641" y="3" transform="rotate(180 76.19013706544641 0)" font-family="Helvetica Neue, Helvetica, Arial, sans-serif">Teaches</text></g></g><g class="layer nodes"><g class="node" aria-label="graph-node14" transform="translate(-471.55420968756164,213.42417933266054)"><circle class="b-outline" cx="0" cy="0" r="32.5" fill="#C990C0" stroke="#b261a5" stroke-width="2px"/><text class="caption" text-anchor="middle" pointer-events="none" x="0" y="5" font-size="10px" fill="#FFFFFF" font-family="Helvetica Neue, Helvetica, Arial, sans-serif"> 2020/2021</text></g><g class="node" aria-label="graph-node15" transform="translate(35.51675248020084,-42.682405023851025)"><circle class="b-outline" cx="0" cy="0" r="32.5" fill="#C990C0" stroke="#b261a5" stroke-width="2px"/><text class="caption" text-anchor="middle" pointer-events="none" x="0" y="5" font-size="10px" fill="#FFFFFF" font-family="Helvetica Neue, Helvetica, Arial, sans-serif"> 2021/2022</text></g><g class="node" aria-label="graph-node16" transform="translate(335.22799894583164,187.5692036173157)"><circle class="b-outline" cx="0" cy="0" r="32.5" fill="#C990C0" stroke="#b261a5" stroke-width="2px"/><text class="caption" text-anchor="middle" pointer-events="none" x="0" y="5" font-size="10px" fill="#FFFFFF" font-family="Helvetica Neue, Helvetica, Arial, sans-serif"> 2022/2023</text></g><g class="node" aria-label="graph-node17" transform="translate(-321.1682207378191,274.23478279367896)"><circle class="b-outline" cx="0" cy="0" r="32.5" fill="#F79767" stroke="#f36924" stroke-width="2px"/><text class="caption" text-anchor="middle" pointer-events="none" x="0" y="5" font-size="10px" fill="#FFFFFF" font-family="Helvetica Neue, Helvetica, Arial, sans-serif"> A</text></g><g class="node" aria-label="graph-node18" transform="translate(-150.17304961512656,-202.59598121994873)"><circle class="b-outline" cx="0" cy="0" r="32.5" fill="#F79767" stroke="#f36924" stroke-width="2px"/><text class="caption" text-anchor="middle" pointer-events="none" x="0" y="5" font-size="10px" fill="#FFFFFF" font-family="Helvetica Neue, Helvetica, Arial, sans-serif"> B</text></g><g class="node" aria-label="graph-node19" transform="translate(441.34165829425524,66.28607073471797)"><circle class="b-outline" cx="0" cy="0" r="32.5" fill="#F79767" stroke="#f36924" stroke-width="2px"/><text class="caption" text-anchor="middle" pointer-events="none" x="0" y="5" font-size="10px" fill="#FFFFFF" font-family="Helvetica Neue, Helvetica, Arial, sans-serif"> C</text></g><g class="node" aria-label="graph-node20" transform="translate(-496.2661541225442,51.1377337913521)"><circle class="b-outline" cx="0" cy="0" r="40" fill="#57C7E3" stroke="#23b3d7" stroke-width="2px"/><text class="caption" text-anchor="middle" pointer-events="none" x="0" y="5" font-size="10px" fill="#2A2C34" font-family="Helvetica Neue, Helvetica, Arial, sans-serif"> TH0855S6</text></g><g class="node" aria-label="graph-node21" transform="translate(98.7859141918939,-248.342321775662)"><circle class="b-outline" cx="0" cy="0" r="40" fill="#57C7E3" stroke="#23b3d7" stroke-width="2px"/><text class="caption" text-anchor="middle" pointer-events="none" x="0" y="5" font-size="10px" fill="#2A2C34" font-family="Helvetica Neue, Helvetica, Arial, sans-serif"> MO0800S7</text></g><g class="node" aria-label="graph-node22" transform="translate(214.40072444013185,55.012734590784135)"><circle class="b-outline" cx="0" cy="0" r="40" fill="#57C7E3" stroke="#23b3d7" stroke-width="2px"/><text class="caption" text-anchor="middle" pointer-events="none" x="0" y="5" font-size="10px" fill="#2A2C34" font-family="Helvetica Neue, Helvetica, Arial, sans-serif"> FR1000S9</text></g><g class="node" aria-label="graph-node23" transform="translate(-33.835819557628746,200.34844123666292)"><circle class="b-outline" cx="0" cy="0" r="40" fill="#57C7E3" stroke="#23b3d7" stroke-width="2px"/><text class="caption" text-anchor="middle" pointer-events="none" x="0" y="5" font-size="10px" fill="#2A2C34" font-family="Helvetica Neue, Helvetica, Arial, sans-serif"> FR1000S6</text></g><g class="node" aria-label="graph-node24" transform="translate(-313.8926329807805,-291.6230696456906)"><circle class="b-outline" cx="0" cy="0" r="40" fill="#57C7E3" stroke="#23b3d7" stroke-width="2px"/><text class="caption" text-anchor="middle" pointer-events="none" x="0" y="5" font-size="10px" fill="#2A2C34" font-family="Helvetica Neue, Helvetica, Arial, sans-serif"> TH0855S7</text></g><g class="node selected" aria-label="graph-node25" transform="translate(-229.15931904407464,408.9662266493169)"><circle class="b-outline" cx="0" cy="0" r="32.5" fill="#4C8EDA" stroke="#2870c2" stroke-width="2px"/><text class="caption" text-anchor="middle" pointer-events="none" x="0" y="5" font-size="10px" fill="#FFFFFF" font-family="Helvetica Neue, Helvetica, Arial, sans-serif"> Petr Kovář</text></g><g class="node" aria-label="graph-node26" transform="translate(-1.276384976178548,-208.11009051306866)"><circle class="b-outline" cx="0" cy="0" r="32.5" fill="#4C8EDA" stroke="#2870c2" stroke-width="2px"/><text class="caption" text-anchor="middle" pointer-events="none" x="0" y="5" font-size="10px" fill="#FFFFFF" font-family="Helvetica Neue, Helvetica, Arial, sans-serif"> Jiří Klimošek</text></g><g class="node" aria-label="graph-node27" transform="translate(565.1047468325779,-28.644971744895113)"><circle class="b-outline" cx="0" cy="0" r="32.5" fill="#4C8EDA" stroke="#2870c2" stroke-width="2px"/><text class="caption" text-anchor="middle" pointer-events="none" x="0" y="5" font-size="10px" fill="#FFFFFF" font-family="Helvetica Neue, Helvetica, Arial, sans-serif"> Pavel Novák</text></g><g class="node" aria-label="graph-node28" transform="translate(-260.48813377040574,61.50600553671748)"><circle class="b-outline" cx="0" cy="0" r="32.5" fill="#ECB5C9" stroke="#da7298" stroke-width="2px"/><text class="caption" text-anchor="middle" pointer-events="none" x="0" y="0" font-size="10px" fill="#2A2C34" font-family="Helvetica Neue, Helvetica, Arial, sans-serif"> Vladimír</text><text class="caption" text-anchor="middle" pointer-events="none" x="0" y="10" font-size="10px" fill="#2A2C34" font-family="Helvetica Neue, Helvetica, Arial, sans-serif"> Mukvald</text></g><g class="node" aria-label="graph-node29" transform="translate(-210.48166668327215,-46.664239370009405)"><circle class="b-outline" cx="0" cy="0" r="32.5" fill="#ECB5C9" stroke="#da7298" stroke-width="2px"/><text class="caption" text-anchor="middle" pointer-events="none" x="0" y="0" font-size="10px" fill="#2A2C34" font-family="Helvetica Neue, Helvetica, Arial, sans-serif"> Jaroslav</text><text class="caption" text-anchor="middle" pointer-events="none" x="0" y="10" font-size="10px" fill="#2A2C34" font-family="Helvetica Neue, Helvetica, Arial, sans-serif"> Pelikán</text></g><g class="node" aria-label="graph-node30" transform="translate(418.84251080808303,-97.41581017967682)"><circle class="b-outline" cx="0" cy="0" r="32.5" fill="#ECB5C9" stroke="#da7298" stroke-width="2px"/><text class="caption" text-anchor="middle" pointer-events="none" x="0" y="0" font-size="10px" fill="#2A2C34" font-family="Helvetica Neue, Helvetica, Arial, sans-serif"> Patrik</text><text class="caption" text-anchor="middle" pointer-events="none" x="0" y="10" font-size="10px" fill="#2A2C34" font-family="Helvetica Neue, Helvetica, Arial, sans-serif"> Svoboda</text></g><g class="node" aria-label="graph-node31" transform="translate(183.56776296489116,-385.83301093238714)"><circle class="b-outline" cx="0" cy="0" r="25" fill="#F16667" stroke="#eb2728" stroke-width="2px"/><text class="caption" text-anchor="middle" pointer-events="none" x="0" y="5" font-size="10px" fill="#FFFFFF" font-family="Helvetica Neue, Helvetica, Arial, sans-serif"> Monday</text></g><g class="node" aria-label="graph-node32" transform="translate(-480.199471173861,-176.70061092900022)"><circle class="b-outline" cx="0" cy="0" r="25" fill="#F16667" stroke="#eb2728" stroke-width="2px"/><text class="caption" text-anchor="middle" pointer-events="none" x="0" y="5" font-size="10px" fill="#FFFFFF" font-family="Helvetica Neue, Helvetica, Arial, sans-serif"> Thursday</text></g><g class="node" aria-label="graph-node33" transform="translate(146.06419182944293,221.05962195675392)"><circle class="b-outline" cx="0" cy="0" r="25" fill="#F16667" stroke="#eb2728" stroke-width="2px"/><text class="caption" text-anchor="middle" pointer-events="none" x="0" y="5" font-size="10px" fill="#FFFFFF" font-family="Helvetica Neue, Helvetica, Arial, sans-serif"> Friday</text></g><g class="node" aria-label="graph-node34" transform="translate(-344.3770981784057,-67.67750729520954)"><circle class="b-outline" cx="0" cy="0" r="32.5" fill="#8DCC93" stroke="#5db665" stroke-width="2px"/><text class="caption" text-anchor="middle" pointer-events="none" x="0" y="5" font-size="10px" fill="#2A2C34" font-family="Helvetica Neue, Helvetica, Arial, sans-serif"> Matematika</text></g><g class="node" aria-label="graph-node35" transform="translate(269.0832462599968,-151.95235264484296)"><circle class="b-outline" cx="0" cy="0" r="32.5" fill="#8DCC93" stroke="#5db665" stroke-width="2px"/><text class="caption" text-anchor="middle" pointer-events="none" x="0" y="5" font-size="10px" fill="#2A2C34" font-family="Helvetica Neue, Helvetica, Arial, sans-serif"> Angličtina</text></g><g class="node" aria-label="graph-node69" transform="translate(-100.05242744076256,43.644422527926565)"><circle class="b-outline" cx="0" cy="0" r="32.5" fill="#8DCC93" stroke="#5db665" stroke-width="2px"/><text class="caption" text-anchor="middle" pointer-events="none" x="0" y="5" font-size="10px" fill="#2A2C34" font-family="Helvetica Neue, Helvetica, Arial, sans-serif"> Fyzika</text></g><g class="node" aria-label="graph-node70" transform="translate(-193.23604085409914,171.38056223006782)"><circle class="b-outline" cx="0" cy="0" r="32.5" fill="#D9C8AE" stroke="#c0a378" stroke-width="2px"/><text class="caption" text-anchor="middle" pointer-events="none" x="0" y="5" font-size="10px" fill="#2A2C34" font-family="Helvetica Neue, Helvetica, Arial, sans-serif"> S6</text></g><g class="node" aria-label="graph-node71" transform="translate(-98.33008187615808,-324.97714469101373)"><circle class="b-outline" cx="0" cy="0" r="32.5" fill="#D9C8AE" stroke="#c0a378" stroke-width="2px"/><text class="caption" text-anchor="middle" pointer-events="none" x="0" y="5" font-size="10px" fill="#2A2C34" font-family="Helvetica Neue, Helvetica, Arial, sans-serif"> S7</text></g><g class="node" aria-label="graph-node72" transform="translate(93.12777962036274,116.35650088146417)"><circle class="b-outline" cx="0" cy="0" r="32.5" fill="#D9C8AE" stroke="#c0a378" stroke-width="2px"/><text class="caption" text-anchor="middle" pointer-events="none" x="0" y="5" font-size="10px" fill="#2A2C34" font-family="Helvetica Neue, Helvetica, Arial, sans-serif"> S9</text></g></g></svg>