<?xml version="1.0" encoding="UTF-8" standalone="no"?><!DOCTYPE svg PUBLIC "-//W3C//DTD SVG 1.1//EN" "http://www.w3.org/Graphics/SVG/1.1/DTD/svg11.dtd"><!-- Generated by graphviz version 2.40.1 (20161225.0304)
 --><!-- Title: G Pages: 1 --><svg xmlns="http://www.w3.org/2000/svg" xmlns:xlink="http://www.w3.org/1999/xlink" width="2890pt" height="727pt" viewBox="0.00 0.00 2890.07 727.19">
<g id="graph0" class="graph" transform="scale(1 1) rotate(0) translate(4 723.1855)">
<title>G</title>
<polygon fill="#ffffff" stroke="transparent" points="-4,4 -4,-723.1855 2886.0695,-723.1855 2886.0695,4 -4,4"/>
<!-- _20216A15 -->
<g id="node1" class="node">
<title>_20216A15</title>
<ellipse fill="none" stroke="#000000" cx="516.3327" cy="-506.8622" rx="136.755" ry="41.0911"/>
<text text-anchor="middle" x="516.3327" y="-519.4622" font-family="Helvetica,sans-Serif" font-size="14.00" fill="#000000">:Timetable</text>
<text text-anchor="start" x="427.7225" y="-502.6622" font-family="Helvetica,sans-Serif" font-size="14.00" fill="#000000">academicYear: "2020/2021",</text>
<text text-anchor="start" x="427.7225" y="-485.8622" font-family="Helvetica,sans-Serif" font-size="14.00" fill="#000000">version: 1.5</text>
</g>
<!-- _6A -->
<g id="node4" class="node">
<title>_6A</title>
<ellipse fill="none" stroke="#000000" cx="114.3327" cy="-347.7134" rx="54.8098" ry="41.0911"/>
<text text-anchor="middle" x="114.3327" y="-360.3134" font-family="Helvetica,sans-Serif" font-size="14.00" fill="#000000">:Class</text>
<text text-anchor="start" x="83.686" y="-343.5134" font-family="Helvetica,sans-Serif" font-size="14.00" fill="#000000">code: "A",</text>
<text text-anchor="start" x="83.686" y="-326.7134" font-family="Helvetica,sans-Serif" font-size="14.00" fill="#000000">year: 6</text>
</g>
<!-- _20216A15&#45;&gt;_6A -->
<g id="edge5" class="edge">
<title>_20216A15-&gt;_6A</title>
<path fill="none" stroke="#000000" d="M413.4557,-479.5387C329.4875,-456.352 218.2793,-423.3637 177.3327,-400.8878 170.1869,-396.9654 163.1024,-392.1565 156.4057,-387.0495"/>
<polygon fill="#000000" stroke="#000000" points="158.1546,-383.9674 148.1552,-380.4657 153.7885,-389.4388 158.1546,-383.9674"/>
<text text-anchor="middle" x="314.8986" y="-423.0878" font-family="Helvetica,sans-Serif" font-size="14.00" fill="#000000">:BelongingClass</text>
</g>
<!-- TH0855S6 -->
<g id="node7" class="node">
<title>TH0855S6</title>
<ellipse fill="none" stroke="#000000" cx="794.3327" cy="-347.7134" rx="196.6378" ry="41.0911"/>
<text text-anchor="middle" x="794.3327" y="-360.3134" font-family="Helvetica,sans-Serif" font-size="14.00" fill="#000000">:Lesson</text>
<text text-anchor="start" x="663.3375" y="-343.5134" font-family="Helvetica,sans-Serif" font-size="14.00" fill="#000000">LessonUrl: "https://zoom.com/TH0855S6",</text>
<text text-anchor="start" x="663.3375" y="-326.7134" font-family="Helvetica,sans-Serif" font-size="14.00" fill="#000000">LessonID: "TH0855S6"</text>
</g>
<!-- _20216A15&#45;&gt;TH0855S6 -->
<g id="edge1" class="edge">
<title>_20216A15-&gt;TH0855S6</title>
<path fill="none" stroke="#000000" d="M580.4605,-470.1504C621.2651,-446.7907 674.3395,-416.4068 717.4078,-391.7512"/>
<polygon fill="#000000" stroke="#000000" points="719.2198,-394.7468 726.1594,-386.7411 715.742,-388.6719 719.2198,-394.7468"/>
<text text-anchor="middle" x="713.5213" y="-423.0878" font-family="Helvetica,sans-Serif" font-size="14.00" fill="#000000">:PlannedLesson</text>
</g>
<!-- _21226B10 -->
<g id="node2" class="node">
<title>_21226B10</title>
<ellipse fill="none" stroke="#000000" cx="1499.3327" cy="-506.8622" rx="136.755" ry="41.0911"/>
<text text-anchor="middle" x="1499.3327" y="-519.4622" font-family="Helvetica,sans-Serif" font-size="14.00" fill="#000000">:Timetable</text>
<text text-anchor="start" x="1410.7225" y="-502.6622" font-family="Helvetica,sans-Serif" font-size="14.00" fill="#000000">academicYear: "2021/2022",</text>
<text text-anchor="start" x="1410.7225" y="-485.8622" font-family="Helvetica,sans-Serif" font-size="14.00" fill="#000000">version: 1.0</text>
</g>
<!-- _6B -->
<g id="node5" class="node">
<title>_6B</title>
<ellipse fill="none" stroke="#000000" cx="1216.3327" cy="-347.7134" rx="54.8098" ry="41.0911"/>
<text text-anchor="middle" x="1216.3327" y="-360.3134" font-family="Helvetica,sans-Serif" font-size="14.00" fill="#000000">:Class</text>
<text text-anchor="start" x="1185.686" y="-343.5134" font-family="Helvetica,sans-Serif" font-size="14.00" fill="#000000">code: "B",</text>
<text text-anchor="start" x="1185.686" y="-326.7134" font-family="Helvetica,sans-Serif" font-size="14.00" fill="#000000">year: 6</text>
</g>
<!-- _21226B10&#45;&gt;_6B -->
<g id="edge6" class="edge">
<title>_21226B10-&gt;_6B</title>
<path fill="none" stroke="#000000" d="M1424.757,-472.1369C1384.478,-452.573 1334.3335,-426.8966 1291.3327,-400.8878 1282.1309,-395.3222 1272.5778,-389.0029 1263.4955,-382.7123"/>
<polygon fill="#000000" stroke="#000000" points="1265.5061,-379.8474 1255.3107,-376.9657 1261.4837,-385.5764 1265.5061,-379.8474"/>
<text text-anchor="middle" x="1402.8986" y="-423.0878" font-family="Helvetica,sans-Serif" font-size="14.00" fill="#000000">:BelongingClass</text>
</g>
<!-- MO0800S7 -->
<g id="node8" class="node">
<title>MO0800S7</title>
<ellipse fill="none" stroke="#000000" cx="1499.3327" cy="-347.7134" rx="199.1421" ry="41.0911"/>
<text text-anchor="middle" x="1499.3327" y="-360.3134" font-family="Helvetica,sans-Serif" font-size="14.00" fill="#000000">:Lesson</text>
<text text-anchor="start" x="1366.3915" y="-343.5134" font-family="Helvetica,sans-Serif" font-size="14.00" fill="#000000">LessonUrl: "https://zoom.com/MO0800S7",</text>
<text text-anchor="start" x="1366.3915" y="-326.7134" font-family="Helvetica,sans-Serif" font-size="14.00" fill="#000000">LessonID: "MO0800S7"</text>
</g>
<!-- _21226B10&#45;&gt;MO0800S7 -->
<g id="edge2" class="edge">
<title>_21226B10-&gt;MO0800S7</title>
<path fill="none" stroke="#000000" d="M1499.3327,-465.4632C1499.3327,-445.2804 1499.3327,-420.8036 1499.3327,-399.406"/>
<polygon fill="#000000" stroke="#000000" points="1502.8328,-399.1812 1499.3327,-389.1813 1495.8328,-399.1813 1502.8328,-399.1812"/>
<text text-anchor="middle" x="1549.5213" y="-423.0878" font-family="Helvetica,sans-Serif" font-size="14.00" fill="#000000">:PlannedLesson</text>
</g>
<!-- FR1000S6 -->
<g id="node10" class="node">
<title>FR1000S6</title>
<ellipse fill="none" stroke="#000000" cx="1913.3327" cy="-347.7134" rx="196.6378" ry="41.0911"/>
<text text-anchor="middle" x="1913.3327" y="-360.3134" font-family="Helvetica,sans-Serif" font-size="14.00" fill="#000000">:Lesson</text>
<text text-anchor="start" x="1782.3375" y="-343.5134" font-family="Helvetica,sans-Serif" font-size="14.00" fill="#000000">LessonUrl: "https://zoom.com/FR1000S6",</text>
<text text-anchor="start" x="1782.3375" y="-326.7134" font-family="Helvetica,sans-Serif" font-size="14.00" fill="#000000">LessonID: "FR1000S6"</text>
</g>
<!-- _21226B10&#45;&gt;FR1000S6 -->
<g id="edge3" class="edge">
<title>_21226B10-&gt;FR1000S6</title>
<path fill="none" stroke="#000000" d="M1583.8606,-474.3682C1649.024,-449.3183 1739.4721,-414.5484 1809.1176,-387.7755"/>
<polygon fill="#000000" stroke="#000000" points="1810.7238,-390.9078 1818.802,-384.0526 1808.212,-384.3739 1810.7238,-390.9078"/>
<text text-anchor="middle" x="1768.5213" y="-423.0878" font-family="Helvetica,sans-Serif" font-size="14.00" fill="#000000">:PlannedLesson</text>
</g>
<!-- _22234C20 -->
<g id="node3" class="node">
<title>_22234C20</title>
<ellipse fill="none" stroke="#000000" cx="2450.3327" cy="-666.0111" rx="136.755" ry="41.0911"/>
<text text-anchor="middle" x="2450.3327" y="-678.6111" font-family="Helvetica,sans-Serif" font-size="14.00" fill="#000000">:Timetable</text>
<text text-anchor="start" x="2361.7225" y="-661.8111" font-family="Helvetica,sans-Serif" font-size="14.00" fill="#000000">academicYear: "2022/2023",</text>
<text text-anchor="start" x="2361.7225" y="-645.0111" font-family="Helvetica,sans-Serif" font-size="14.00" fill="#000000">version: 2.0</text>
</g>
<!-- _4C -->
<g id="node6" class="node">
<title>_4C</title>
<ellipse fill="none" stroke="#000000" cx="2748.3327" cy="-506.8622" rx="55.399" ry="41.0911"/>
<text text-anchor="middle" x="2748.3327" y="-519.4622" font-family="Helvetica,sans-Serif" font-size="14.00" fill="#000000">:Class</text>
<text text-anchor="start" x="2717.301" y="-502.6622" font-family="Helvetica,sans-Serif" font-size="14.00" fill="#000000">code: "C",</text>
<text text-anchor="start" x="2717.301" y="-485.8622" font-family="Helvetica,sans-Serif" font-size="14.00" fill="#000000">year: 4</text>
</g>
<!-- _22234C20&#45;&gt;_4C -->
<g id="edge7" class="edge">
<title>_22234C20-&gt;_4C</title>
<path fill="none" stroke="#000000" d="M2517.9535,-629.8977C2571.3018,-601.4067 2644.7278,-562.1931 2694.2255,-535.7585"/>
<polygon fill="#000000" stroke="#000000" points="2696.0071,-538.775 2703.1791,-530.9768 2692.7094,-532.6004 2696.0071,-538.775"/>
<text text-anchor="middle" x="2657.8986" y="-582.2367" font-family="Helvetica,sans-Serif" font-size="14.00" fill="#000000">:BelongingClass</text>
</g>
<!-- FR1000S9 -->
<g id="node9" class="node">
<title>FR1000S9</title>
<ellipse fill="none" stroke="#000000" cx="2424.3327" cy="-347.7134" rx="196.6378" ry="41.0911"/>
<text text-anchor="middle" x="2424.3327" y="-360.3134" font-family="Helvetica,sans-Serif" font-size="14.00" fill="#000000">:Lesson</text>
<text text-anchor="start" x="2293.3375" y="-343.5134" font-family="Helvetica,sans-Serif" font-size="14.00" fill="#000000">LessonUrl: "https://zoom.com/FR1000S9",</text>
<text text-anchor="start" x="2293.3375" y="-326.7134" font-family="Helvetica,sans-Serif" font-size="14.00" fill="#000000">LessonID: "FR1000S9"</text>
</g>
<!-- _22234C20&#45;&gt;FR1000S9 -->
<g id="edge4" class="edge">
<title>_22234C20-&gt;FR1000S9</title>
<path fill="none" stroke="#000000" d="M2446.9603,-624.7255C2442.2421,-566.9649 2433.6747,-462.081 2428.5435,-399.263"/>
<polygon fill="#000000" stroke="#000000" points="2432.0223,-398.86 2427.7197,-389.1782 2425.0455,-399.43 2432.0223,-398.86"/>
<text text-anchor="middle" x="2491.5213" y="-502.6622" font-family="Helvetica,sans-Serif" font-size="14.00" fill="#000000">:PlannedLesson</text>
</g>
<!-- muk -->
<g id="node15" class="node">
<title>muk</title>
<ellipse fill="none" stroke="#000000" cx="128.3327" cy="-188.5645" rx="128.1656" ry="53.3494"/>
<text text-anchor="middle" x="128.3327" y="-209.5645" font-family="Helvetica,sans-Serif" font-size="14.00" fill="#000000">:Teacher</text>
<text text-anchor="start" x="45.5878" y="-192.7645" font-family="Helvetica,sans-Serif" font-size="14.00" fill="#000000">ID: "muk",</text>
<text text-anchor="start" x="45.5878" y="-175.9645" font-family="Helvetica,sans-Serif" font-size="14.00" fill="#000000">name: "Vladimír Mukvald"</text>
<text text-anchor="start" x="45.5878" y="-159.1645" font-family="Helvetica,sans-Serif" font-size="14.00" fill="#000000">experience: 5</text>
</g>
<!-- _6A&#45;&gt;muk -->
<g id="edge8" class="edge">
<title>_6A-&gt;muk</title>
<path fill="none" stroke="#000000" d="M117.9745,-306.3143C119.4373,-289.6846 121.1567,-270.1396 122.7696,-251.8039"/>
<polygon fill="#000000" stroke="#000000" points="126.2626,-252.0362 123.6525,-241.7679 119.2895,-251.4227 126.2626,-252.0362"/>
<text text-anchor="middle" x="184.5599" y="-263.9389" font-family="Helvetica,sans-Serif" font-size="14.00" fill="#000000">:CLASS_TEACHER</text>
</g>
<!-- pel -->
<g id="node16" class="node">
<title>pel</title>
<ellipse fill="none" stroke="#000000" cx="1196.3327" cy="-188.5645" rx="121.9836" ry="53.3494"/>
<text text-anchor="middle" x="1196.3327" y="-209.5645" font-family="Helvetica,sans-Serif" font-size="14.00" fill="#000000">:Teacher</text>
<text text-anchor="start" x="1118.2484" y="-192.7645" font-family="Helvetica,sans-Serif" font-size="14.00" fill="#000000">ID: "pel",</text>
<text text-anchor="start" x="1118.2484" y="-175.9645" font-family="Helvetica,sans-Serif" font-size="14.00" fill="#000000">name: "Jaroslav Pelikán"</text>
<text text-anchor="start" x="1118.2484" y="-159.1645" font-family="Helvetica,sans-Serif" font-size="14.00" fill="#000000">experience: 3</text>
</g>
<!-- _6B&#45;&gt;pel -->
<g id="edge9" class="edge">
<title>_6B-&gt;pel</title>
<path fill="none" stroke="#000000" d="M1211.1301,-306.3143C1209.0403,-289.6846 1206.5841,-270.1396 1204.2799,-251.8039"/>
<polygon fill="#000000" stroke="#000000" points="1207.7383,-251.2535 1203.0187,-241.7679 1200.7929,-252.1263 1207.7383,-251.2535"/>
<text text-anchor="middle" x="1268.5599" y="-263.9389" font-family="Helvetica,sans-Serif" font-size="14.00" fill="#000000">:CLASS_TEACHER</text>
</g>
<!-- svo -->
<g id="node17" class="node">
<title>svo</title>
<ellipse fill="none" stroke="#000000" cx="2754.3327" cy="-347.7134" rx="115.928" ry="53.3494"/>
<text text-anchor="middle" x="2754.3327" y="-368.7134" font-family="Helvetica,sans-Serif" font-size="14.00" fill="#000000">:Teacher</text>
<text text-anchor="start" x="2680.5107" y="-351.9134" font-family="Helvetica,sans-Serif" font-size="14.00" fill="#000000">ID: "svo",</text>
<text text-anchor="start" x="2680.5107" y="-335.1134" font-family="Helvetica,sans-Serif" font-size="14.00" fill="#000000">name: "Patrik Svoboda"</text>
<text text-anchor="start" x="2680.5107" y="-318.3134" font-family="Helvetica,sans-Serif" font-size="14.00" fill="#000000">experience: 2</text>
</g>
<!-- _4C&#45;&gt;svo -->
<g id="edge10" class="edge">
<title>_4C-&gt;svo</title>
<path fill="none" stroke="#000000" d="M2749.8934,-465.4632C2750.5204,-448.8334 2751.2572,-429.2885 2751.9485,-410.9527"/>
<polygon fill="#000000" stroke="#000000" points="2755.4476,-411.0416 2752.3269,-400.9168 2748.4525,-410.7778 2755.4476,-411.0416"/>
<text text-anchor="middle" x="2813.5599" y="-423.0878" font-family="Helvetica,sans-Serif" font-size="14.00" fill="#000000">:CLASS_TEACHER</text>
</g>
<!-- TH0855 -->
<g id="node19" class="node">
<title>TH0855</title>
<ellipse fill="none" stroke="#000000" cx="545.3327" cy="-188.5645" rx="148.3487" ry="53.3494"/>
<text text-anchor="middle" x="545.3327" y="-209.5645" font-family="Helvetica,sans-Serif" font-size="14.00" fill="#000000">:TimeSlot</text>
<text text-anchor="start" x="448.5577" y="-192.7645" font-family="Helvetica,sans-Serif" font-size="14.00" fill="#000000">TimeSlotBeginning: "08:55:00",</text>
<text text-anchor="start" x="448.5577" y="-175.9645" font-family="Helvetica,sans-Serif" font-size="14.00" fill="#000000">TimeSlotEnd: "09:40:00"</text>
<text text-anchor="start" x="448.5577" y="-159.1645" font-family="Helvetica,sans-Serif" font-size="14.00" fill="#000000">DayOfWeek: "Thursday"</text>
</g>
<!-- TH0855S6&#45;&gt;TH0855 -->
<g id="edge18" class="edge">
<title>TH0855S6-&gt;TH0855</title>
<path fill="none" stroke="#000000" d="M689.7761,-312.5262C667.1804,-302.6215 644.1432,-290.6258 624.3201,-276.5389 612.6288,-268.2308 601.4351,-257.9038 591.3384,-247.2791"/>
<polygon fill="#000000" stroke="#000000" points="593.8831,-244.8758 584.5309,-239.8971 588.7372,-249.6212 593.8831,-244.8758"/>
<text text-anchor="middle" x="668.839" y="-263.9389" font-family="Helvetica,sans-Serif" font-size="14.00" fill="#000000">:TAKES_TIME</text>
</g>
<!-- Math -->
<g id="node21" class="node">
<title>Math</title>
<ellipse fill="none" stroke="#000000" cx="513.3327" cy="-41.295" rx="134.3022" ry="41.0911"/>
<text text-anchor="middle" x="513.3327" y="-53.895" font-family="Helvetica,sans-Serif" font-size="14.00" fill="#000000">:Subject</text>
<text text-anchor="start" x="426.2968" y="-37.095" font-family="Helvetica,sans-Serif" font-size="14.00" fill="#000000">SubjectID: "mt",</text>
<text text-anchor="start" x="426.2968" y="-20.295" font-family="Helvetica,sans-Serif" font-size="14.00" fill="#000000">SubjectName: "Matematika"</text>
</g>
<!-- TH0855S6&#45;&gt;Math -->
<g id="edge20" class="edge">
<title>TH0855S6-&gt;Math</title>
<path fill="none" stroke="#000000" d="M770.3015,-306.4721C759.5997,-287.1789 747.3136,-263.6664 737.8867,-241.7389 718.2028,-195.9532 735.0352,-172.9976 702.3327,-135.3901 679.5661,-109.2089 647.7962,-89.5244 616.7935,-75.1118"/>
<polygon fill="#000000" stroke="#000000" points="618.1999,-71.9067 607.6442,-70.9966 615.3285,-78.2906 618.1999,-71.9067"/>
<text text-anchor="middle" x="778.5557" y="-184.3645" font-family="Helvetica,sans-Serif" font-size="14.00" fill="#000000">:IS_TAUGHT</text>
</g>
<!-- S6 -->
<g id="node24" class="node">
<title>S6</title>
<ellipse fill="none" stroke="#000000" cx="1449.3327" cy="-188.5645" rx="113.7362" ry="41.0911"/>
<text text-anchor="middle" x="1449.3327" y="-201.1645" font-family="Helvetica,sans-Serif" font-size="14.00" fill="#000000">:Classroom</text>
<text text-anchor="start" x="1376.9926" y="-184.3645" font-family="Helvetica,sans-Serif" font-size="14.00" fill="#000000">ClassroomID: "S6",</text>
<text text-anchor="start" x="1376.9926" y="-167.5645" font-family="Helvetica,sans-Serif" font-size="14.00" fill="#000000">ClassroomCapacity: 30</text>
</g>
<!-- TH0855S6&#45;&gt;S6 -->
<g id="edge19" class="edge">
<title>TH0855S6-&gt;S6</title>
<path fill="none" stroke="#000000" d="M950.9444,-322.7569C1013.4918,-313.2332 1086.2313,-302.7118 1152.3327,-294.5389 1233.0019,-284.5649 1258.7217,-306.3717 1334.3327,-276.5389 1341.5376,-273.6962 1368.4608,-253.1991 1394.4456,-232.7059"/>
<polygon fill="#000000" stroke="#000000" points="1396.7876,-235.3159 1402.4569,-226.3656 1392.4434,-229.827 1396.7876,-235.3159"/>
<text text-anchor="middle" x="1408.0683" y="-263.9389" font-family="Helvetica,sans-Serif" font-size="14.00" fill="#000000">:TAKES_PLACE</text>
</g>
<!-- MO0800 -->
<g id="node18" class="node">
<title>MO0800</title>
<ellipse fill="none" stroke="#000000" cx="1729.3327" cy="-188.5645" rx="148.3487" ry="53.3494"/>
<text text-anchor="middle" x="1729.3327" y="-209.5645" font-family="Helvetica,sans-Serif" font-size="14.00" fill="#000000">:TimeSlot</text>
<text text-anchor="start" x="1632.5577" y="-192.7645" font-family="Helvetica,sans-Serif" font-size="14.00" fill="#000000">TimeSlotBeginning: "08:00:00",</text>
<text text-anchor="start" x="1632.5577" y="-175.9645" font-family="Helvetica,sans-Serif" font-size="14.00" fill="#000000">TimeSlotEnd: "08:45:00"</text>
<text text-anchor="start" x="1632.5577" y="-159.1645" font-family="Helvetica,sans-Serif" font-size="14.00" fill="#000000">DayOfWeek: "Monday"</text>
</g>
<!-- MO0800S7&#45;&gt;MO0800 -->
<g id="edge21" class="edge">
<title>MO0800S7-&gt;MO0800</title>
<path fill="none" stroke="#000000" d="M1556.8154,-308.0092C1571.6468,-297.7602 1587.5859,-286.7417 1602.3327,-276.5389 1618.5802,-265.2979 1635.9922,-253.2422 1652.5535,-241.7713"/>
<polygon fill="#000000" stroke="#000000" points="1654.8982,-244.4049 1661.1258,-235.8335 1650.9123,-238.6505 1654.8982,-244.4049"/>
<text text-anchor="middle" x="1667.839" y="-263.9389" font-family="Helvetica,sans-Serif" font-size="14.00" fill="#000000">:TAKES_TIME</text>
</g>
<!-- English -->
<g id="node22" class="node">
<title>English</title>
<ellipse fill="none" stroke="#000000" cx="2701.3327" cy="-188.5645" rx="127.0038" ry="41.0911"/>
<text text-anchor="middle" x="2701.3327" y="-201.1645" font-family="Helvetica,sans-Serif" font-size="14.00" fill="#000000">:Subject</text>
<text text-anchor="start" x="2619.3522" y="-184.3645" font-family="Helvetica,sans-Serif" font-size="14.00" fill="#000000">SubjectID: "en",</text>
<text text-anchor="start" x="2619.3522" y="-167.5645" font-family="Helvetica,sans-Serif" font-size="14.00" fill="#000000">SubjectName: "Angličtina"</text>
</g>
<!-- MO0800S7&#45;&gt;English -->
<g id="edge23" class="edge">
<title>MO0800S7-&gt;English</title>
<path fill="none" stroke="#000000" d="M1613.4057,-313.7488C1643.6737,-306.0619 1676.516,-298.8916 1707.3327,-294.5389 1837.8754,-276.1006 2170.9125,-301.6749 2300.3327,-276.5389 2321.516,-272.4247 2324.8163,-264.3972 2345.8867,-259.7389 2441.4385,-238.6144 2469.9902,-263.7891 2565.3327,-241.7389 2582.6302,-237.7385 2600.6415,-231.9474 2617.6815,-225.6449"/>
<polygon fill="#000000" stroke="#000000" points="2618.927,-228.9158 2627.0376,-222.0989 2616.4462,-222.3702 2618.927,-228.9158"/>
<text text-anchor="middle" x="2386.5557" y="-263.9389" font-family="Helvetica,sans-Serif" font-size="14.00" fill="#000000">:IS_TAUGHT</text>
</g>
<!-- S7 -->
<g id="node25" class="node">
<title>S7</title>
<ellipse fill="none" stroke="#000000" cx="943.3327" cy="-188.5645" rx="113.7362" ry="41.0911"/>
<text text-anchor="middle" x="943.3327" y="-201.1645" font-family="Helvetica,sans-Serif" font-size="14.00" fill="#000000">:Classroom</text>
<text text-anchor="start" x="870.9926" y="-184.3645" font-family="Helvetica,sans-Serif" font-size="14.00" fill="#000000">ClassroomID: "S7",</text>
<text text-anchor="start" x="870.9926" y="-167.5645" font-family="Helvetica,sans-Serif" font-size="14.00" fill="#000000">ClassroomCapacity: 28</text>
</g>
<!-- MO0800S7&#45;&gt;S7 -->
<g id="edge22" class="edge">
<title>MO0800S7-&gt;S7</title>
<path fill="none" stroke="#000000" d="M1495.365,-306.2687C1491.4772,-289.1002 1483.9222,-270.6774 1469.3327,-259.7389 1433.3816,-232.7847 1109.1055,-251.8855 1065.3327,-241.7389 1049.6754,-238.1096 1033.5192,-232.5264 1018.2912,-226.3192"/>
<polygon fill="#000000" stroke="#000000" points="1019.5171,-223.0379 1008.9423,-222.3856 1016.8022,-229.49 1019.5171,-223.0379"/>
<text text-anchor="middle" x="1535.0683" y="-263.9389" font-family="Helvetica,sans-Serif" font-size="14.00" fill="#000000">:TAKES_PLACE</text>
</g>
<!-- FR1000 -->
<g id="node20" class="node">
<title>FR1000</title>
<ellipse fill="none" stroke="#000000" cx="2162.3327" cy="-188.5645" rx="148.3487" ry="53.3494"/>
<text text-anchor="middle" x="2162.3327" y="-209.5645" font-family="Helvetica,sans-Serif" font-size="14.00" fill="#000000">:TimeSlot</text>
<text text-anchor="start" x="2065.5577" y="-192.7645" font-family="Helvetica,sans-Serif" font-size="14.00" fill="#000000">TimeSlotBeginning: "10:00:00",</text>
<text text-anchor="start" x="2065.5577" y="-175.9645" font-family="Helvetica,sans-Serif" font-size="14.00" fill="#000000">TimeSlotEnd: "10:45:00"</text>
<text text-anchor="start" x="2065.5577" y="-159.1645" font-family="Helvetica,sans-Serif" font-size="14.00" fill="#000000">DayOfWeek: "Friday"</text>
</g>
<!-- FR1000S9&#45;&gt;FR1000 -->
<g id="edge24" class="edge">
<title>FR1000S9-&gt;FR1000</title>
<path fill="none" stroke="#000000" d="M2284.6164,-318.632C2257.6397,-308.4796 2231.0494,-294.8396 2209.3201,-276.5389 2200.7156,-269.2922 2193.4522,-260.0575 2187.4034,-250.3107"/>
<polygon fill="#000000" stroke="#000000" points="2190.4321,-248.5565 2182.3972,-241.6506 2184.3718,-252.0598 2190.4321,-248.5565"/>
<text text-anchor="middle" x="2253.839" y="-263.9389" font-family="Helvetica,sans-Serif" font-size="14.00" fill="#000000">:TAKES_TIME</text>
</g>
<!-- FR1000S9&#45;&gt;English -->
<g id="edge26" class="edge">
<title>FR1000S9-&gt;English</title>
<path fill="none" stroke="#000000" d="M2492.0945,-308.7812C2533.8136,-284.8117 2587.2381,-254.117 2629.6606,-229.7433"/>
<polygon fill="#000000" stroke="#000000" points="2631.6108,-232.6594 2638.5379,-224.6429 2628.1235,-226.5899 2631.6108,-232.6594"/>
<text text-anchor="middle" x="2611.5557" y="-263.9389" font-family="Helvetica,sans-Serif" font-size="14.00" fill="#000000">:IS_TAUGHT</text>
</g>
<!-- S9 -->
<g id="node26" class="node">
<title>S9</title>
<ellipse fill="none" stroke="#000000" cx="2442.3327" cy="-188.5645" rx="113.7362" ry="41.0911"/>
<text text-anchor="middle" x="2442.3327" y="-201.1645" font-family="Helvetica,sans-Serif" font-size="14.00" fill="#000000">:Classroom</text>
<text text-anchor="start" x="2369.9926" y="-184.3645" font-family="Helvetica,sans-Serif" font-size="14.00" fill="#000000">ClassroomID: "S9",</text>
<text text-anchor="start" x="2369.9926" y="-167.5645" font-family="Helvetica,sans-Serif" font-size="14.00" fill="#000000">ClassroomCapacity: 30</text>
</g>
<!-- FR1000S9&#45;&gt;S9 -->
<g id="edge25" class="edge">
<title>FR1000S9-&gt;S9</title>
<path fill="none" stroke="#000000" d="M2429.015,-306.3143C2431.2977,-286.1315 2434.066,-261.6548 2436.4862,-240.2571"/>
<polygon fill="#000000" stroke="#000000" points="2439.9965,-240.3624 2437.6426,-230.0324 2433.0408,-239.5757 2439.9965,-240.3624"/>
<text text-anchor="middle" x="2485.0683" y="-263.9389" font-family="Helvetica,sans-Serif" font-size="14.00" fill="#000000">:TAKES_PLACE</text>
</g>
<!-- FR1000S6&#45;&gt;FR1000 -->
<g id="edge27" class="edge">
<title>FR1000S6-&gt;FR1000</title>
<path fill="none" stroke="#000000" d="M1974.8832,-308.3732C2006.8795,-287.9227 2046.4032,-262.661 2080.897,-240.6143"/>
<polygon fill="#000000" stroke="#000000" points="2083.0095,-243.4179 2089.5506,-235.0833 2079.2397,-237.5198 2083.0095,-243.4179"/>
<text text-anchor="middle" x="2089.839" y="-263.9389" font-family="Helvetica,sans-Serif" font-size="14.00" fill="#000000">:TAKES_TIME</text>
</g>
<!-- Physics -->
<g id="node23" class="node">
<title>Physics</title>
<ellipse fill="none" stroke="#000000" cx="1601.3327" cy="-41.295" rx="111.6923" ry="41.0911"/>
<text text-anchor="middle" x="1601.3327" y="-53.895" font-family="Helvetica,sans-Serif" font-size="14.00" fill="#000000">:Subject</text>
<text text-anchor="start" x="1530.2456" y="-37.095" font-family="Helvetica,sans-Serif" font-size="14.00" fill="#000000">SubjectID: "ps",</text>
<text text-anchor="start" x="1530.2456" y="-20.295" font-family="Helvetica,sans-Serif" font-size="14.00" fill="#000000">SubjectName: "Fyzika"</text>
</g>
<!-- FR1000S6&#45;&gt;Physics -->
<g id="edge29" class="edge">
<title>FR1000S6-&gt;Physics</title>
<path fill="none" stroke="#000000" d="M1920.074,-306.355C1925.2572,-259.498 1925.9125,-183.4247 1886.3327,-135.3901 1863.0328,-107.113 1779.3219,-81.5072 1708.6061,-64.1714"/>
<polygon fill="#000000" stroke="#000000" points="1709.2643,-60.7297 1698.7217,-61.7807 1707.6186,-67.5336 1709.2643,-60.7297"/>
<text text-anchor="middle" x="1962.5557" y="-184.3645" font-family="Helvetica,sans-Serif" font-size="14.00" fill="#000000">:IS_TAUGHT</text>
</g>
<!-- FR1000S6&#45;&gt;S6 -->
<g id="edge28" class="edge">
<title>FR1000S6-&gt;S6</title>
<path fill="none" stroke="#000000" d="M1841.281,-309.1407C1805.0535,-291.3767 1759.8979,-271.6431 1717.3327,-259.7389 1654.7933,-242.2486 1634.9917,-258.7958 1572.3327,-241.7389 1557.2333,-237.6286 1541.5768,-232.0071 1526.6984,-225.9524"/>
<polygon fill="#000000" stroke="#000000" points="1527.6238,-222.5459 1517.0473,-221.9225 1524.9265,-229.0054 1527.6238,-222.5459"/>
<text text-anchor="middle" x="1813.0683" y="-263.9389" font-family="Helvetica,sans-Serif" font-size="14.00" fill="#000000">:TAKES_PLACE</text>
</g>
<!-- TH0855S7 -->
<g id="node11" class="node">
<title>TH0855S7</title>
<ellipse fill="none" stroke="#000000" cx="383.3327" cy="-347.7134" rx="196.6378" ry="41.0911"/>
<text text-anchor="middle" x="383.3327" y="-360.3134" font-family="Helvetica,sans-Serif" font-size="14.00" fill="#000000">:Lesson</text>
<text text-anchor="start" x="252.3375" y="-343.5134" font-family="Helvetica,sans-Serif" font-size="14.00" fill="#000000">LessonUrl: "https://zoom.com/TH0855S7",</text>
<text text-anchor="start" x="252.3375" y="-326.7134" font-family="Helvetica,sans-Serif" font-size="14.00" fill="#000000">LessonID: "TH0855S7"</text>
</g>
<!-- TH0855S7&#45;&gt;TH0855 -->
<g id="edge30" class="edge">
<title>TH0855S7-&gt;TH0855</title>
<path fill="none" stroke="#000000" d="M374.7731,-306.4196C373.7068,-290.6624 375.4079,-273.2561 384.3201,-259.7389 393.2364,-246.2154 405.3621,-235.2409 418.9862,-226.3394"/>
<polygon fill="#000000" stroke="#000000" points="420.9299,-229.2537 427.6474,-221.0606 417.2869,-223.2763 420.9299,-229.2537"/>
<text text-anchor="middle" x="428.839" y="-263.9389" font-family="Helvetica,sans-Serif" font-size="14.00" fill="#000000">:TAKES_TIME</text>
</g>
<!-- TH0855S7&#45;&gt;Math -->
<g id="edge32" class="edge">
<title>TH0855S7-&gt;Math</title>
<path fill="none" stroke="#000000" d="M344.2909,-307.1248C329.1988,-288.6932 313.7011,-265.6761 305.8867,-241.7389 291.2181,-196.8065 280.2817,-175.1201 305.8867,-135.3901 326.1052,-104.0179 359.6103,-82.9886 393.8575,-68.94"/>
<polygon fill="#000000" stroke="#000000" points="395.4872,-72.0609 403.5262,-65.1598 392.9382,-65.5414 395.4872,-72.0609"/>
<text text-anchor="middle" x="347.5557" y="-184.3645" font-family="Helvetica,sans-Serif" font-size="14.00" fill="#000000">:IS_TAUGHT</text>
</g>
<!-- TH0855S7&#45;&gt;S7 -->
<g id="edge31" class="edge">
<title>TH0855S7-&gt;S7</title>
<path fill="none" stroke="#000000" d="M434.9397,-307.8491C448.1183,-297.6525 462.2567,-286.6988 475.3327,-276.5389 484.9166,-269.0923 485.5007,-264.0094 496.8615,-259.7389 563.2131,-234.7979 746.2366,-257.5603 815.3327,-241.7389 832.0976,-237.9002 849.4785,-232.0601 865.8248,-225.6354"/>
<polygon fill="#000000" stroke="#000000" points="867.3592,-228.7903 875.3171,-221.7958 864.7343,-222.301 867.3592,-228.7903"/>
<text text-anchor="middle" x="548.0683" y="-263.9389" font-family="Helvetica,sans-Serif" font-size="14.00" fill="#000000">:TAKES_PLACE</text>
</g>
<!-- kovpe -->
<g id="node12" class="node">
<title>kovpe</title>
<ellipse fill="none" stroke="#000000" cx="114.3327" cy="-506.8622" rx="99.3854" ry="41.0911"/>
<text text-anchor="middle" x="114.3327" y="-519.4622" font-family="Helvetica,sans-Serif" font-size="14.00" fill="#000000">:Student</text>
<text text-anchor="start" x="52.193" y="-502.6622" font-family="Helvetica,sans-Serif" font-size="14.00" fill="#000000">ID: "kovpe",</text>
<text text-anchor="start" x="52.193" y="-485.8622" font-family="Helvetica,sans-Serif" font-size="14.00" fill="#000000">name: "Petr Kovář"</text>
</g>
<!-- kovpe&#45;&gt;_6A -->
<g id="edge11" class="edge">
<title>kovpe-&gt;_6A</title>
<path fill="none" stroke="#000000" d="M114.3327,-465.4632C114.3327,-445.2804 114.3327,-420.8036 114.3327,-399.406"/>
<polygon fill="#000000" stroke="#000000" points="117.8328,-399.1812 114.3327,-389.1813 110.8328,-399.1813 117.8328,-399.1812"/>
<text text-anchor="middle" x="163.731" y="-423.0878" font-family="Helvetica,sans-Serif" font-size="14.00" fill="#000000">:BELONGS_TO</text>
</g>
<!-- kliji -->
<g id="node13" class="node">
<title>kliji</title>
<ellipse fill="none" stroke="#000000" cx="1216.3327" cy="-506.8622" rx="112.8403" ry="53.3494"/>
<text text-anchor="middle" x="1216.3327" y="-527.8622" font-family="Helvetica,sans-Serif" font-size="14.00" fill="#000000">:Student</text>
<text text-anchor="start" x="1144.4861" y="-511.0622" font-family="Helvetica,sans-Serif" font-size="14.00" fill="#000000">ID: "kliji",</text>
<text text-anchor="start" x="1144.4861" y="-494.2622" font-family="Helvetica,sans-Serif" font-size="14.00" fill="#000000">name: "Jiří Klimošek"</text>
<text text-anchor="start" x="1144.4861" y="-477.4622" font-family="Helvetica,sans-Serif" font-size="14.00" fill="#000000">nickname: ["Limoš"]</text>
</g>
<!-- kliji&#45;&gt;_6B -->
<g id="edge12" class="edge">
<title>kliji-&gt;_6B</title>
<path fill="none" stroke="#000000" d="M1216.3327,-453.4252C1216.3327,-436.076 1216.3327,-416.8621 1216.3327,-399.6258"/>
<polygon fill="#000000" stroke="#000000" points="1219.8328,-399.1837 1216.3327,-389.1837 1212.8328,-399.1837 1219.8328,-399.1837"/>
<text text-anchor="middle" x="1265.731" y="-423.0878" font-family="Helvetica,sans-Serif" font-size="14.00" fill="#000000">:BELONGS_TO</text>
</g>
<!-- novpa -->
<g id="node14" class="node">
<title>novpa</title>
<ellipse fill="none" stroke="#000000" cx="2748.3327" cy="-666.0111" rx="133.974" ry="53.3494"/>
<text text-anchor="middle" x="2748.3327" y="-687.0111" font-family="Helvetica,sans-Serif" font-size="14.00" fill="#000000">:Student</text>
<text text-anchor="start" x="2661.7665" y="-670.2111" font-family="Helvetica,sans-Serif" font-size="14.00" fill="#000000">ID: "novpa",</text>
<text text-anchor="start" x="2661.7665" y="-653.4111" font-family="Helvetica,sans-Serif" font-size="14.00" fill="#000000">name: "Pavel Novák"</text>
<text text-anchor="start" x="2661.7665" y="-636.6111" font-family="Helvetica,sans-Serif" font-size="14.00" fill="#000000">nickname: ["Kajak", "Bizon"]</text>
</g>
<!-- novpa&#45;&gt;_4C -->
<g id="edge13" class="edge">
<title>novpa-&gt;_4C</title>
<path fill="none" stroke="#000000" d="M2748.3327,-612.5741C2748.3327,-595.2249 2748.3327,-576.011 2748.3327,-558.7747"/>
<polygon fill="#000000" stroke="#000000" points="2751.8328,-558.3325 2748.3327,-548.3326 2744.8328,-558.3326 2751.8328,-558.3325"/>
<text text-anchor="middle" x="2797.731" y="-582.2367" font-family="Helvetica,sans-Serif" font-size="14.00" fill="#000000">:BELONGS_TO</text>
</g>
<!-- muk&#45;&gt;Math -->
<g id="edge14" class="edge">
<title>muk-&gt;Math</title>
<path fill="none" stroke="#000000" d="M167.0346,-137.5494C179.9952,-123.6152 195.4796,-109.8285 212.3299,-100.5901 241.4266,-84.6373 313.5088,-70.1665 379.8384,-59.5144"/>
<polygon fill="#000000" stroke="#000000" points="380.6721,-62.926 390.0013,-57.9044 379.5768,-56.0122 380.6721,-62.926"/>
<text text-anchor="middle" x="247.3341" y="-104.7901" font-family="Helvetica,sans-Serif" font-size="14.00" fill="#000000">:TEACHES</text>
</g>
<!-- pel&#45;&gt;Math -->
<g id="edge15" class="edge">
<title>pel-&gt;Math</title>
<path fill="none" stroke="#000000" d="M1110.9106,-150.5296C1096.2332,-144.8912 1080.9862,-139.5784 1066.3327,-135.3901 927.3789,-95.6732 763.7012,-70.384 650.6545,-56.1416"/>
<polygon fill="#000000" stroke="#000000" points="650.9157,-52.6471 640.5593,-54.8821 650.049,-59.5933 650.9157,-52.6471"/>
<text text-anchor="middle" x="1027.3341" y="-104.7901" font-family="Helvetica,sans-Serif" font-size="14.00" fill="#000000">:TEACHES</text>
</g>
<!-- pel&#45;&gt;Physics -->
<g id="edge16" class="edge">
<title>pel-&gt;Physics</title>
<path fill="none" stroke="#000000" d="M1284.5193,-151.6816C1298.4566,-146.0874 1312.7487,-140.4872 1326.3327,-135.3901 1386.1527,-112.9437 1454.0727,-89.6826 1507.446,-71.9039"/>
<polygon fill="#000000" stroke="#000000" points="1508.8518,-75.125 1517.2374,-68.6495 1506.6439,-68.4823 1508.8518,-75.125"/>
<text text-anchor="middle" x="1451.3341" y="-104.7901" font-family="Helvetica,sans-Serif" font-size="14.00" fill="#000000">:TEACHES</text>
</g>
<!-- svo&#45;&gt;English -->
<g id="edge17" class="edge">
<title>svo-&gt;English</title>
<path fill="none" stroke="#000000" d="M2736.6844,-294.7191C2730.739,-276.8662 2724.1221,-256.9967 2718.2356,-239.3207"/>
<polygon fill="#000000" stroke="#000000" points="2721.5297,-238.1349 2715.0493,-229.753 2714.8883,-240.3466 2721.5297,-238.1349"/>
<text text-anchor="middle" x="2764.3341" y="-263.9389" font-family="Helvetica,sans-Serif" font-size="14.00" fill="#000000">:TEACHES</text>
</g>
</g>
</svg>