<?xml version="1.0" encoding="UTF-8" standalone="no"?>
<!DOCTYPE svg PUBLIC "-//W3C//DTD SVG 1.1//EN" "http://www.w3.org/Graphics/SVG/1.1/DTD/svg11.dtd">
<svg xmlns="http://www.w3.org/2000/svg" xmlns:xlink="http://www.w3.org/1999/xlink" version="1.1" width="1920pt" height="1080pt" viewBox="0 0 1920 1080">
<g enable-background="new">
<path transform="matrix(1,0,0,-1,0,1080)" d="M 0 1080 L 1920 1080 L 1920 0 L 0 0 Z " fill="#fbfbfb"/>
<path transform="matrix(.2,0,0,.2,1711,1015)" d="M 211.9 68.8 L 159.7 68.8 L 159.7 147.6 L 242.4 147.6 L 242.4 99.3 C 242.4 82.5 228.8 68.8 211.9 68.8 Z " fill="#428cff"/>
<path transform="matrix(.2,0,0,.2,1711,1015)" d="M 242.4 147.6 L 159.7 147.6 L 159.7 228.8 L 211.9 228.8 C 228.7 228.8 242.4 215.1 242.4 198.3 L 242.4 147.6 Z " fill="#2670de"/>
<path transform="matrix(.2,0,0,.2,1711,1015)" d="M 159.7 68.8 L 113.1 68.8 C 96.3 68.8 82.6 82.5 82.6 99.3 L 82.6 198.3 C 82.6 215.1 96.3 228.8 113.1 228.8 L 159.7 228.8 L 159.7 68.8 Z " fill="#2161cf"/>
<path transform="matrix(.2,0,0,.2,1711,1015)" d="M 135.9 165.1 L 113.9 165.1 C 110.5 165.1 107.8 162.4 107.8 159 L 107.8 137 C 107.8 133.6 110.5 130.9 113.9 130.9 L 135.9 130.9 C 139.3 130.9 142 133.6 142 137 L 142 159 C 142 162.4 139.2 165.1 135.9 165.1 Z M 185 92.8 L 207 92.8 C 210.4 92.8 213.1 95.5 213.1 98.9 L 213.1 120.9 C 213.1 124.299999 210.4 127 207 127 L 185 127 C 181.6 127 178.9 124.299999 178.9 120.9 L 178.9 98.9 C 178.9 95.5 181.7 92.8 185 92.8 Z M 185 171 L 207 171 C 210.4 171 213.1 173.7 213.1 177.1 L 213.1 199.1 C 213.1 202.5 210.4 205.2 207 205.2 L 185 205.2 C 181.6 205.2 178.9 202.5 178.9 199.1 L 178.9 177.1 C 178.9 173.7 181.7 171 185 171 Z " fill="#ffffff"/>
<path transform="matrix(.2,0,0,.2,1711,1015)" d="M 126.076 151.65 L 192.116 103.89 L 196.862 110.454 L 130.823 158.214 Z " fill="#ffffff"/>
<path transform="matrix(.2,0,0,.2,1711,1015)" d="M 125.826999 143.874 L 130.8 137.48 L 194.819 187.268 L 189.846 193.662 Z " fill="#ffffff"/>
<path transform="matrix(.2,0,0,.2,1711,1015)" d="M 344.9 182.1 L 335.9 182.1 L 335.9 175.3 L 335.7 175.3 C 334 177.8 331.6 179.8 328.6 181.2 C 325.6 182.6 322.5 183.3 319.3 183.3 C 315.6 183.3 312.3 182.7 309.4 181.4 C 306.4 180.1 303.9 178.4 301.8 176.1 C 299.7 173.8 298.1 171.2 297 168.2 C 295.9 165.2 295.3 161.9 295.3 158.4 C 295.3 154.9 295.9 151.6 297 148.6 C 298.1 145.6 299.7 142.9 301.8 140.7 C 303.9 138.5 306.4 136.7 309.4 135.5 C 312.4 134.2 315.7 133.6 319.3 133.6 C 322.7 133.6 325.9 134.3 328.9 135.7 C 331.9 137.1 334.2 139.1 335.8 141.5 L 336 141.5 L 336 106.6 L 345 106.6 L 345 182.1 L 344.9 182.1 Z M 320.3 174.9 C 322.7 174.9 324.9 174.5 326.8 173.7 C 328.7 172.9 330.4 171.7 331.7 170.3 C 333 168.9 334.1 167.1 334.8 165.1 C 335.5 163.1 335.9 160.9 335.9 158.5 C 335.9 156.1 335.5 153.9 334.8 151.9 C 334.1 149.9 333 148.1 331.7 146.7 C 330.4 145.3 328.7 144.1 326.8 143.3 C 324.9 142.5 322.7 142.1 320.3 142.1 C 317.9 142.1 315.7 142.5 313.8 143.3 C 311.9 144.1 310.2 145.3 308.9 146.7 C 307.6 148.1 306.5 149.9 305.8 151.9 C 305.1 153.9 304.7 156.1 304.7 158.5 C 304.7 160.9 305.1 163.1 305.8 165.1 C 306.5 167.1 307.6 168.9 308.9 170.3 C 310.2 171.7 311.9 172.9 313.8 173.7 C 315.8 174.5 317.9 174.9 320.3 174.9 Z M 358.4 106.6 L 367.4 106.6 L 367.4 141.5 L 367.6 141.5 C 369.2 139 371.5 137.1 374.5 135.7 C 377.5 134.3 380.7 133.6 384.1 133.6 C 387.8 133.6 391.1 134.2 394 135.5 C 397 136.8 399.5 138.5 401.6 140.7 C 403.7 142.9 405.3 145.6 406.4 148.6 C 407.5 151.6 408.1 154.9 408.1 158.4 C 408.1 161.9 407.5 165.2 406.4 168.2 C 405.3 171.2 403.7 173.8 401.6 176.1 C 399.5 178.4 397 180.1 394 181.4 C 391 182.7 387.7 183.3 384.1 183.3 C 380.9 183.3 377.8 182.6 374.8 181.2 C 371.8 179.8 369.4 177.8 367.7 175.3 L 367.5 175.3 L 367.5 182.1 L 358.5 182.1 L 358.5 106.6 L 358.4 106.6 Z M 383 174.9 C 385.4 174.9 387.6 174.5 389.5 173.7 C 391.4 172.9 393.1 171.7 394.4 170.3 C 395.7 168.9 396.8 167.1 397.5 165.1 C 398.2 163.1 398.6 160.9 398.6 158.5 C 398.6 156.1 398.2 153.9 397.5 151.9 C 396.8 149.9 395.7 148.1 394.4 146.7 C 393.1 145.3 391.4 144.1 389.5 143.3 C 387.6 142.5 385.4 142.1 383 142.1 C 380.6 142.1 378.4 142.5 376.5 143.3 C 374.6 144.1 372.9 145.3 371.6 146.7 C 370.3 148.1 369.2 149.9 368.5 151.9 C 367.8 153.9 367.4 156.1 367.4 158.5 C 367.4 160.9 367.8 163.1 368.5 165.1 C 369.2 167.1 370.3 168.9 371.6 170.3 C 372.9 171.7 374.6 172.9 376.5 173.7 C 378.4 174.5 380.6 174.9 383 174.9 Z M 466.9 182.1 L 457.9 182.1 L 457.9 175.3 L 457.7 175.3 C 456 177.8 453.6 179.8 450.6 181.2 C 447.6 182.6 444.5 183.3 441.3 183.3 C 437.6 183.3 434.3 182.7 431.4 181.4 C 428.4 180.1 425.9 178.4 423.8 176.1 C 421.7 173.8 420.1 171.2 419 168.2 C 417.9 165.2 417.3 161.9 417.3 158.4 C 417.3 154.9 417.9 151.6 419 148.6 C 420.1 145.6 421.7 142.9 423.8 140.7 C 425.9 138.5 428.4 136.7 431.4 135.5 C 434.4 134.2 437.7 133.6 441.3 133.6 C 444.7 133.6 447.9 134.3 450.9 135.7 C 453.9 137.1 456.2 139.1 457.8 141.5 L 458 141.5 L 458 106.6 L 467 106.6 L 467 182.1 L 466.9 182.1 Z M 442.3 174.9 C 444.7 174.9 446.9 174.5 448.8 173.7 C 450.7 172.9 452.4 171.7 453.7 170.3 C 455 168.9 456.1 167.1 456.8 165.1 C 457.5 163.1 457.9 160.9 457.9 158.5 C 457.9 156.1 457.5 153.9 456.8 151.9 C 456.1 149.9 455 148.1 453.7 146.7 C 452.4 145.3 450.7 144.1 448.8 143.3 C 446.9 142.5 444.7 142.1 442.3 142.1 C 439.9 142.1 437.7 142.5 435.8 143.3 C 433.9 144.1 432.2 145.3 430.9 146.7 C 429.6 148.1 428.5 149.9 427.8 151.9 C 427.1 153.9 426.7 156.1 426.7 158.5 C 426.7 160.9 427.1 163.1 427.8 165.1 C 428.5 167.1 429.6 168.9 430.9 170.3 C 432.2 171.7 433.9 172.9 435.8 173.7 C 437.7 174.5 439.9 174.9 442.3 174.9 Z M 479 117.8 C 479 116 479.6 114.5 480.9 113.2 C 482.2 111.9 483.7 111.3 485.5 111.3 C 487.3 111.3 488.8 111.9 490.1 113.2 C 491.4 114.5 492 116 492 117.8 C 492 119.6 491.4 121.1 490.1 122.4 C 488.8 123.7 487.3 124.3 485.5 124.3 C 483.7 124.3 482.2 123.7 480.9 122.4 C 479.7 121.1 479 119.6 479 117.8 Z M 481.1 134.8 L 490.1 134.8 L 490.1 182.1 L 481.1 182.1 L 481.1 134.8 Z M 504.6 140.5 C 507.1 138.2 510.1 136.4 513.4 135.3 C 516.7 134.1 520.1 133.6 523.4 133.6 C 526.9 133.6 529.8 134 532.3 134.9 C 534.8 135.8 536.8 136.9 538.4 138.4 C 540 139.9 541.2 141.5 541.9 143.4 C 542.7 145.3 543 147.3 543 149.3 L 543 173.5 C 543 175.2 543 176.7 543.1 178.1 C 543.2 179.5 543.3 180.8 543.4 182.1 L 535.4 182.1 C 535.2 179.7 535.1 177.3 535.1 174.9 L 535 174.9 C 533 178 530.6 180.1 527.9 181.4 C 525.2 182.7 522 183.3 518.4 183.3 C 516.2 183.3 514.1 183 512.1 182.4 C 510.1 181.8 508.4 180.9 506.9 179.7 C 505.4 178.5 504.2 177 503.4 175.3 C 502.5 173.5 502.1 171.5 502.1 169.2 C 502.1 166.1 502.8 163.6 504.1 161.5 C 505.5 159.4 507.3 157.8 509.7 156.5 C 512.1 155.2 514.8 154.3 518 153.7 C 521.2 153.1 524.5 152.9 528.1 152.9 L 534.7 152.9 L 534.7 150.9 C 534.7 149.7 534.5 148.5 534 147.3 C 533.5 146.1 532.8 145 531.9 144.1 C 531 143.1 529.8 142.4 528.4 141.8 C 527 141.2 525.3 141 523.4 141 C 521.7 141 520.2 141.2 518.9 141.5 C 517.6 141.8 516.4 142.2 515.4 142.7 C 514.3 143.2 513.4 143.8 512.5 144.4 C 511.6 145.1 510.8 145.7 510 146.3 L 504.6 140.5 Z M 529.9 159.3 C 527.8 159.3 525.6 159.4 523.4 159.6 C 521.2 159.8 519.1 160.3 517.3 160.9 C 515.5 161.6 514 162.5 512.8 163.7 C 511.6 164.9 511.1 166.4 511.1 168.3 C 511.1 171 512 173 513.8 174.2 C 515.6 175.4 518.1 176 521.2 176 C 523.7 176 525.8 175.6 527.5 174.8 C 529.2 174 530.6 172.9 531.7 171.6 C 532.8 170.3 533.5 168.8 534 167.2 C 534.5 165.6 534.7 164 534.7 162.4 L 534.7 159.4 L 529.9 159.4 L 529.9 159.3 Z M 603.6 181.7 C 603.6 185.3 603 188.6 601.8 191.5 C 600.6 194.5 598.8 197 596.6 199.2 C 594.3 201.4 591.6 203 588.4 204.2 C 585.2 205.4 581.7 206 577.8 206 C 573.3 206 569.1 205.4 565.4 204.1 C 561.6 202.8 558.1 200.6 554.7 197.5 L 560.8 189.9 C 563.1 192.4 565.7 194.3 568.4 195.6 C 571.1 196.9 574.2 197.5 577.7 197.5 C 581 197.5 583.8 197 586 196.1 C 588.2 195.1 589.9 193.9 591.2 192.4 C 592.5 190.9 593.4 189.1 593.9 187.2 C 594.4 185.2 594.7 183.3 594.7 181.3 L 594.7 174.3 L 594.4 174.3 C 592.7 177.2 590.3 179.3 587.4 180.6 C 584.4 182 581.3 182.6 578.1 182.6 C 574.6 182.6 571.4 182 568.5 180.8 C 565.5 179.6 563 177.9 560.9 175.7 C 558.8 173.5 557.1 171 555.9 168 C 554.7 165 554.1 161.8 554.1 158.4 C 554.1 154.9 554.7 151.7 555.8 148.7 C 556.9 145.7 558.5 143 560.6 140.8 C 562.7 138.5 565.2 136.8 568.2 135.5 C 571.2 134.2 574.5 133.6 578.1 133.6 C 581.3 133.6 584.4 134.3 587.4 135.7 C 590.4 137.1 592.8 139.1 594.5 141.6 L 594.7 141.6 L 594.7 134.8 L 603.7 134.8 L 603.6 181.7 Z M 579.1 141.9 C 576.7 141.9 574.5 142.3 572.6 143.1 C 570.7 143.9 569 145.1 567.7 146.5 C 566.4 147.9 565.3 149.7 564.6 151.7 C 563.9 153.7 563.5 155.9 563.5 158.3 C 563.5 163.1 564.9 166.9 567.7 169.8 C 570.5 172.7 574.3 174.1 579.1 174.1 C 583.9 174.1 587.7 172.7 590.5 169.8 C 593.3 166.9 594.7 163.1 594.7 158.3 C 594.7 155.9 594.3 153.7 593.6 151.7 C 592.9 149.7 591.8 147.9 590.5 146.5 C 589.2 145.1 587.5 143.9 585.6 143.1 C 583.6 142.4 581.5 141.9 579.1 141.9 Z M 617.2 134.8 L 626.2 134.8 L 626.2 142.1 L 626.4 142.1 C 627 140.8 627.8 139.7 628.8 138.7 C 629.8 137.7 630.9 136.8 632.1 136.1 C 633.3 135.4 634.7 134.8 636.1 134.4 C 637.6 134 639 133.8 640.5 133.8 C 642 133.8 643.3 134 644.5 134.4 L 644.1 144.1 C 643.4 143.9 642.6 143.7 641.9 143.6 C 641.2 143.5 640.4 143.4 639.7 143.4 C 635.3 143.4 631.9 144.6 629.6 147.1 C 627.3 149.6 626.1 153.4 626.1 158.6 L 626.1 182.4 L 617.1 182.4 L 617.2 134.8 Z M 654.3 140.5 C 656.8 138.2 659.8 136.4 663.1 135.3 C 666.4 134.1 669.8 133.6 673.1 133.6 C 676.6 133.6 679.5 134 682 134.9 C 684.5 135.8 686.5 136.9 688.1 138.4 C 689.7 139.9 690.9 141.5 691.6 143.4 C 692.4 145.3 692.7 147.3 692.7 149.3 L 692.7 173.5 C 692.7 175.2 692.7 176.7 692.8 178.1 C 692.9 179.5 693 180.8 693.1 182.1 L 685.1 182.1 C 684.9 179.7 684.8 177.3 684.8 174.9 L 684.6 174.9 C 682.6 178 680.2 180.1 677.5 181.4 C 674.8 182.7 671.6 183.3 668 183.3 C 665.8 183.3 663.7 183 661.7 182.4 C 659.7 181.8 658 180.9 656.5 179.7 C 655 178.5 653.8 177 653 175.3 C 652.1 173.5 651.7 171.5 651.7 169.2 C 651.7 166.1 652.4 163.6 653.7 161.5 C 655.1 159.4 656.9 157.8 659.3 156.5 C 661.7 155.2 664.4 154.3 667.6 153.7 C 670.8 153.1 674.1 152.9 677.7 152.9 L 684.3 152.9 L 684.3 150.9 C 684.3 149.7 684.1 148.5 683.6 147.3 C 683.1 146.1 682.4 145 681.5 144.1 C 680.6 143.1 679.4 142.4 678 141.8 C 676.6 141.2 674.9 141 673 141 C 671.3 141 669.8 141.2 668.5 141.5 C 667.2 141.8 666 142.2 665 142.7 C 663.9 143.2 663 143.8 662.1 144.4 C 661.2 145.1 660.4 145.7 659.6 146.3 L 654.3 140.5 Z M 679.7 159.3 C 677.6 159.3 675.4 159.4 673.2 159.6 C 671 159.8 668.9 160.3 667.1 160.9 C 665.3 161.6 663.8 162.5 662.6 163.7 C 661.4 164.9 660.9 166.4 660.9 168.3 C 660.9 171 661.8 173 663.6 174.2 C 665.4 175.4 667.9 176 671 176 C 673.5 176 675.6 175.6 677.3 174.8 C 679 174 680.4 172.9 681.5 171.6 C 682.6 170.3 683.3 168.8 683.8 167.2 C 684.3 165.6 684.5 164 684.5 162.4 L 684.5 159.4 L 679.7 159.4 L 679.7 159.3 Z M 705.9 134.8 L 714.3 134.8 L 714.3 142.2 L 714.5 142.2 C 714.7 141.5 715.2 140.7 716 139.7 C 716.8 138.7 717.9 137.8 719.2 136.9 C 720.5 136 722 135.2 723.8 134.6 C 725.6 134 727.5 133.7 729.6 133.7 C 733.1 133.7 736.1 134.4 738.5 135.9 C 740.9 137.4 742.9 139.6 744.4 142.5 C 745.9 139.6 748.1 137.4 750.9 135.9 C 753.7 134.4 756.5 133.7 759.4 133.7 C 763.1 133.7 766.1 134.3 768.4 135.5 C 770.7 136.7 772.6 138.3 773.9 140.2 C 775.2 142.2 776.1 144.4 776.6 146.9 C 777.1 149.4 777.3 152 777.3 154.6 L 777.3 182.2 L 768.3 182.2 L 768.3 155.8 C 768.3 154 768.2 152.3 768 150.6 C 767.8 148.9 767.3 147.5 766.6 146.2 C 765.9 144.9 764.8 143.9 763.5 143.2 C 762.2 142.4 760.4 142.1 758.2 142.1 C 753.9 142.1 750.8 143.4 748.9 146.1 C 747 148.8 746.1 152.2 746.1 156.4 L 746.1 182.3 L 737.1 182.3 L 737.1 157.5 C 737.1 155.2 737 153.2 736.8 151.3 C 736.6 149.4 736.1 147.8 735.4 146.5 C 734.7 145.1 733.7 144.1 732.4 143.3 C 731.1 142.5 729.4 142.2 727.2 142.2 C 725.6 142.2 724.1 142.5 722.6 143.1 C 721.1 143.7 719.8 144.7 718.7 145.9 C 717.6 147.2 716.7 148.8 716 150.7 C 715.3 152.7 715 155 715 157.6 L 715 182.2 L 706 182.2 L 706 134.8 L 705.9 134.8 Z " fill="#2161cf"/>
<path transform="matrix(.2,0,0,.2,1711,1015)" d="M 798.1 182.7 C 796.3 182.7 794.8 182.1 793.5 180.8 C 792.2 179.5 791.6 178 791.6 176.2 C 791.6 174.4 792.2 172.9 793.5 171.6 C 794.8 170.3 796.3 169.7 798.1 169.7 C 799.9 169.7 801.4 170.3 802.7 171.6 C 804 172.9 804.6 174.4 804.6 176.2 C 804.6 178 804 179.5 802.7 180.8 C 801.4 182 799.9 182.7 798.1 182.7 Z M 817.3 117.799999 C 817.3 116 817.9 114.5 819.2 113.2 C 820.5 111.9 822 111.299999 823.8 111.299999 C 825.6 111.299999 827.1 111.9 828.4 113.2 C 829.7 114.5 830.3 116 830.3 117.799999 C 830.3 119.6 829.7 121.1 828.4 122.4 C 827.1 123.7 825.6 124.299999 823.8 124.299999 C 822 124.299999 820.5 123.7 819.2 122.4 C 818 121.1 817.3 119.6 817.3 117.799999 Z M 819.4 134.8 L 828.4 134.8 L 828.4 182.1 L 819.4 182.1 L 819.4 134.8 Z M 840.4 158.4 C 840.4 154.9 841 151.7 842.3 148.7 C 843.6 145.7 845.4 143.1 847.6 140.8 C 849.9 138.5 852.5 136.8 855.6 135.5 C 858.7 134.2 862 133.6 865.5 133.6 C 869 133.6 872.3 134.2 875.4 135.5 C 878.5 136.8 881.1 138.6 883.4 140.8 C 885.7 143.1 887.4 145.7 888.7 148.7 C 890 151.7 890.6 154.9 890.6 158.4 C 890.6 161.9 890 165.1 888.7 168.1 C 887.4 171.1 885.6 173.8 883.4 176 C 881.1 178.2 878.5 180 875.4 181.3 C 872.3 182.6 869 183.2 865.5 183.2 C 862 183.2 858.7 182.6 855.6 181.3 C 852.5 180 849.9 178.2 847.6 176 C 845.3 173.8 843.6 171.1 842.3 168.1 C 841.1 165.1 840.4 161.9 840.4 158.4 Z M 850 158.4 C 850 160.8 850.4 163 851.1 165 C 851.8 167 852.9 168.8 854.2 170.2 C 855.5 171.6 857.2 172.8 859.1 173.6 C 861 174.4 863.2 174.8 865.6 174.8 C 868 174.8 870.2 174.4 872.1 173.6 C 874 172.8 875.7 171.6 877 170.2 C 878.3 168.8 879.4 167 880.1 165 C 880.8 163 881.2 160.8 881.2 158.4 C 881.2 156 880.8 153.8 880.1 151.8 C 879.4 149.8 878.3 148 877 146.6 C 875.7 145.2 874 144 872.1 143.2 C 870.2 142.4 868 142 865.6 142 C 863.2 142 861 142.4 859.1 143.2 C 857.2 144 855.5 145.2 854.2 146.6 C 852.9 148 851.8 149.8 851.1 151.8 C 850.4 153.8 850 156 850 158.4 Z " fill="#428cff"/>
<path transform="matrix(.9037506,0,0,.9037506,1236.054,605.9086)" stroke-width="2" stroke-linecap="butt" stroke-miterlimit="10" stroke-linejoin="miter" fill="none" stroke="#619ccc" d="M 8 241.53189 L 27.928381 241.53189 C 34.595048 241.53189 37.928384 238.19855 37.928384 231.53189 L 37.928384 36 C 37.928384 29.333334 34.595048 26 27.928381 26 L 17.928381 26 L 27.928381 26 C 34.595048 26 37.928384 29.333334 37.928384 36 L 37.928384 231.53189 C 37.928384 238.19855 34.595048 241.53189 27.928381 241.53189 L 8 241.53189 Z M 18 237.53189 L 18 245.53189 M 27.928381 22 L 27.928381 30 "/>
<text xml:space="preserve" transform="matrix(.9037506 0 0 .9037506 102.81165 50)" font-size="14" font-family="Helvetica"><tspan y="853.6447" x="1264.9326">1</tspan></text>
<text xml:space="preserve" transform="matrix(.9037506 0 0 .9037506 102.81165 50)" font-size="14" font-family="Helvetica"><tspan y="638.11288" x="1274.8611">1</tspan></text>
<path transform="matrix(.9037506,0,0,.9037506,249.77658,531.6167)" stroke-width="2" stroke-linecap="butt" stroke-miterlimit="10" stroke-linejoin="miter" fill="none" stroke="#619ccc" d="M 8 26 L 83.06345 26 C 89.73012 26 93.06345 29.333334 93.06345 36 L 93.06345 449.4611 C 93.06345 456.12779 96.39679 459.4611 103.06345 459.4611 L 178.1269 459.4611 L 103.06345 459.4611 C 96.39679 459.4611 93.06345 456.12779 93.06345 449.4611 L 93.06345 36 C 93.06345 29.333334 89.73012 26 83.06345 26 L 8 26 M 18 22 L 18 30 M 178.1269 455.4611 L 168.1269 459.4611 L 178.1269 463.4611 "/>
<text xml:space="preserve" transform="matrix(.9037506 0 0 .9037506 102.81165 50)" font-size="14" font-family="Helvetica"><tspan y="555.9089" x="173.6167">1</tspan></text>
<text xml:space="preserve" transform="matrix(.9037506 0 0 .9037506 102.81165 50)" font-size="14" font-family="Helvetica"><tspan y="989.37" x="330.03266">*</tspan></text>
<path transform="matrix(.9037506,0,0,.9037506,543.3133,536.5991)" stroke-width="2" stroke-linecap="butt" stroke-miterlimit="10" stroke-linejoin="miter" fill="none" stroke="#619ccc" d="M 8 26 L 70.19036 26 C 76.85703 26 80.19036 29.333334 80.19036 36 L 80.19036 476.9481 C 80.19036 483.61476 76.85703 486.9481 70.19036 486.9481 L 60.19036 486.9481 L 70.19036 486.9481 C 76.85703 486.9481 80.19036 483.61476 80.19036 476.9481 L 80.19036 36 C 80.19036 29.333334 76.85703 26 70.19036 26 L 8 26 Z M 18 22 L 18 30 M 60.19036 482.9481 L 70.19036 486.9481 L 60.19036 490.9481 "/>
<text xml:space="preserve" transform="matrix(.9037506 0 0 .9037506 102.81165 50)" font-size="14" font-family="Helvetica"><tspan y="561.4219" x="498.41508">1</tspan></text>
<text xml:space="preserve" transform="matrix(.9037506 0 0 .9037506 102.81165 50)" font-size="14" font-family="Helvetica"><tspan y="1022.37" x="550.6054">*</tspan></text>
<path transform="matrix(.9037506,0,0,.9037506,590.48037,540.84677)" stroke-width="2" stroke-linecap="butt" stroke-miterlimit="10" stroke-linejoin="miter" fill="none" stroke="#619ccc" d="M 8 515.2481 L 56.264616 515.2481 C 62.931283 515.2481 66.26462 511.91474 66.26462 505.24809 L 66.26462 36 C 66.26462 29.333334 69.597949 26 76.26462 26 L 124.52923 26 L 76.26462 26 C 69.597949 26 66.26462 29.333334 66.26462 36 L 66.26462 505.24809 C 66.26462 511.91474 62.931283 515.2481 56.264616 515.2481 L 8 515.2481 M 8 511.24809 L 18 515.2481 L 8 519.2481 M 114.52923 22 L 114.52923 30 "/>
<text xml:space="preserve" transform="matrix(.9037506 0 0 .9037506 102.81165 50)" font-size="14" font-family="Helvetica"><tspan y="1055.37" x="550.6054">*</tspan></text>
<text xml:space="preserve" transform="matrix(.9037506 0 0 .9037506 102.81165 50)" font-size="14" font-family="Helvetica"><tspan y="566.1219" x="653.12979">1</tspan></text>
<path transform="matrix(.9037506,0,0,.9037506,590.48037,863.7099)" stroke-width="2" stroke-linecap="butt" stroke-miterlimit="10" stroke-linejoin="miter" fill="none" stroke="#619ccc" d="M 8 26 L 123.5273 26 C 123.55986 26 123.57614 26.016282 123.57614 26.048842 C 123.57614 26.081402 123.59242 26.097683 123.624988 26.097683 L 239.15229 26.097683 L 123.624988 26.097683 C 123.59242 26.097683 123.57614 26.081402 123.57614 26.048842 C 123.57614 26.016282 123.55986 26 123.5273 26 L 8 26 M 18 22 L 18 30 M 239.15229 22.097683 L 229.15229 26.097683 L 239.15229 30.097683 "/>
<text xml:space="preserve" transform="matrix(.9037506 0 0 .9037506 102.81165 50)" font-size="14" font-family="Helvetica"><tspan y="923.37" x="550.6054">1</tspan></text>
<text xml:space="preserve" transform="matrix(.9037506 0 0 .9037506 102.81165 50)" font-size="14" font-family="Helvetica"><tspan y="923.46768" x="768.04678">*</tspan></text>
<path transform="matrix(.9037506,0,0,.9037506,973.60617,800.6957)" stroke-width="2" stroke-linecap="butt" stroke-miterlimit="10" stroke-linejoin="miter" fill="none" stroke="#619ccc" d="M 8 128.82292 L 22.458338 128.82292 C 29.125006 128.82292 32.45834 125.48959 32.45834 118.82292 L 32.45834 36 C 32.45834 29.333334 35.79167 26 42.45834 26 L 56.916677 26 L 42.45834 26 C 35.79167 26 32.45834 29.333334 32.45834 36 L 32.45834 118.82292 C 32.45834 125.48959 29.125006 128.82292 22.458338 128.82292 L 8 128.82292 M 8 124.82292 L 18 128.82292 L 8 132.82292 M 46.916677 22 L 46.916677 30 "/>
<text xml:space="preserve" transform="matrix(.9037506 0 0 .9037506 102.81165 50)" font-size="14" font-family="Helvetica"><tspan y="956.46768" x="974.53408">*</tspan></text>
<text xml:space="preserve" transform="matrix(.9037506 0 0 .9037506 102.81165 50)" font-size="14" font-family="Helvetica"><tspan y="853.6447" x="1009.44589">1</tspan></text>
<path transform="matrix(.9037506,0,0,.9037506,1245.0269,516.43728)" stroke-width="2" stroke-linecap="butt" stroke-miterlimit="10" stroke-linejoin="miter" fill="none" stroke="#619ccc" d="M 8 26 L 58.83892 26 C 65.505588 26 68.83892 29.333334 68.83892 36 L 68.83892 209.00905 C 68.83892 215.6757 72.17226 219.00905 78.83892 219.00905 L 129.67784 219.00905 L 78.83892 219.00905 C 72.17226 219.00905 68.83892 215.6757 68.83892 209.00905 L 68.83892 36 C 68.83892 29.333334 65.505588 26 58.83892 26 L 8 26 M 18 22 L 18 30 M 129.67784 215.00905 L 119.67784 219.00905 L 129.67784 223.00905 "/>
<text xml:space="preserve" transform="matrix(.9037506 0 0 .9037506 102.81165 50)" font-size="14" font-family="Helvetica"><tspan y="539.11288" x="1274.8611">1</tspan></text>
<text xml:space="preserve" transform="matrix(.9037506 0 0 .9037506 102.81165 50)" font-size="14" font-family="Helvetica"><tspan y="732.1219" x="1382.828">*</tspan></text>
<path transform="matrix(.9037506,0,0,.9037506,285.0664,71.23814)" stroke-width="2" stroke-linecap="butt" stroke-miterlimit="10" stroke-linejoin="miter" fill="none" stroke="#619ccc" d="M 8 26 L 563.044 26 C 563.62527 26 563.9159 26.29063 563.9159 26.871891 C 563.9159 27.453152 564.20657 27.74378 564.7878 27.74378 L 1119.8318 27.74378 L 564.7878 27.74378 C 564.20657 27.74378 563.9159 27.453152 563.9159 26.871891 C 563.9159 26.29063 563.62527 26 563.044 26 L 8 26 M 8 22 L 18 26 L 8 30 M 1109.8318 23.74378 L 1109.8318 31.74378 "/>
<text xml:space="preserve" transform="matrix(.9037506 0 0 .9037506 102.81165 50)" font-size="14" font-family="Helvetica"><tspan y="46.5" x="212.66487">*</tspan></text>
<text xml:space="preserve" transform="matrix(.9037506 0 0 .9037506 102.81165 50)" font-size="14" font-family="Helvetica"><tspan y="48.243783" x="1310.4918">1</tspan></text>
<path transform="matrix(.9037506,0,0,.9037506,249.77658,101.061908)" stroke-width="2" stroke-linecap="butt" stroke-miterlimit="10" stroke-linejoin="miter" fill="none" stroke="#619ccc" d="M 8 502.40888 L 57.048177 502.40888 C 63.714845 502.40888 67.04818 499.07554 67.04818 492.40888 L 67.04818 36 C 67.04818 29.333334 63.714845 26 57.048177 26 L 47.048177 26 L 57.048177 26 C 63.714845 26 67.04818 29.333334 67.04818 36 L 67.04818 492.40888 C 67.04818 499.07554 63.714845 502.40888 57.048177 502.40888 L 8 502.40888 Z M 18 498.40888 L 18 506.40888 M 47.048177 22 L 57.048177 26 L 47.048177 30 "/>
<text xml:space="preserve" transform="matrix(.9037506 0 0 .9037506 102.81165 50)" font-size="14" font-family="Helvetica"><tspan y="555.9089" x="173.6167">1</tspan></text>
<text xml:space="preserve" transform="matrix(.9037506 0 0 .9037506 102.81165 50)" font-size="14" font-family="Helvetica"><tspan y="79.5" x="212.66487">*</tspan></text>
<path transform="matrix(.9037506,0,0,.9037506,1245.0269,366.72413)" stroke-width="2" stroke-linecap="butt" stroke-miterlimit="10" stroke-linejoin="miter" fill="none" stroke="#619ccc" d="M 8 191.65763 L 52.768365 191.65763 C 59.43503 191.65763 62.768365 188.32428 62.768365 181.65763 L 62.768365 36 C 62.768365 29.333334 66.1017 26 72.768367 26 L 117.53673 26 L 72.768367 26 C 66.1017 26 62.768365 29.333334 62.768365 36 L 62.768365 181.65763 C 62.768365 188.32428 59.43503 191.65763 52.768365 191.65763 L 8 191.65763 M 18 187.65763 L 18 195.65763 M 107.53673 22 L 107.53673 30 "/>
<text xml:space="preserve" transform="matrix(.9037506 0 0 .9037506 102.81165 50)" font-size="14" font-family="Helvetica"><tspan y="539.11288" x="1274.8611">1</tspan></text>
<text xml:space="preserve" transform="matrix(.9037506 0 0 .9037506 102.81165 50)" font-size="14" font-family="Helvetica"><tspan y="373.45524" x="1370.393">1</tspan></text>
<path transform="matrix(.9037506,0,0,.9037506,1483.5026,72.81408)" stroke-width="2" stroke-linecap="butt" stroke-miterlimit="10" stroke-linejoin="miter" fill="none" stroke="#619ccc" d="M 8 26 L 23.489029 26 C 30.155697 26 33.48903 29.333334 33.48903 36 L 33.48903 374.21147 C 33.48903 380.8781 30.155697 384.21147 23.489029 384.21147 L 13.489029 384.21147 L 23.489029 384.21147 C 30.155697 384.21147 33.48903 380.8781 33.48903 374.21147 L 33.48903 36 C 33.48903 29.333334 30.155697 26 23.489029 26 L 8 26 Z M 18 22 L 18 30 M 23.489029 380.21147 L 23.489029 388.21147 "/>
<text xml:space="preserve" transform="matrix(.9037506 0 0 .9037506 102.81165 50)" font-size="14" font-family="Helvetica"><tspan y="48.243783" x="1538.7345">1</tspan></text>
<text xml:space="preserve" transform="matrix(.9037506 0 0 .9037506 102.81165 50)" font-size="14" font-family="Helvetica"><tspan y="406.45524" x="1544.2235">1</tspan></text>
<path transform="matrix(.9037506,0,0,.9037506,1532.112,631.2218)" stroke-width="2" stroke-linecap="butt" stroke-miterlimit="10" stroke-linejoin="miter" fill="none" stroke="#619ccc" d="M 8 26 L 40.099077 26 C 46.765745 26 50.099077 29.333334 50.099077 36 L 50.099077 150.14383 C 50.099077 156.8105 53.432409 160.14383 60.099077 160.14383 L 92.19815 160.14383 L 60.099077 160.14383 C 53.432409 160.14383 50.099077 156.8105 50.099077 150.14383 L 50.099077 36 C 50.099077 29.333334 46.765745 26 40.099077 26 L 8 26 M 18 22 L 18 30 M 92.19815 156.14383 L 82.19815 160.14383 L 92.19815 164.14383 "/>
<text xml:space="preserve" transform="matrix(.9037506 0 0 .9037506 102.81165 50)" font-size="14" font-family="Helvetica"><tspan y="666.1219" x="1592.5209">1</tspan></text>
<text xml:space="preserve" transform="matrix(.9037506 0 0 .9037506 102.81165 50)" font-size="14" font-family="Helvetica"><tspan y="800.26577" x="1663.008">*</tspan></text>
<path transform="matrix(.9037506,0,0,.9037506,1025.0447,779.4575)" d="M 0 0 L 241.48194 0 L 241.48194 33 L 0 33 L 0 0 Z " fill="#306996"/>
<text fill="#ffffff" xml:space="preserve" transform="matrix(.9037506 0 0 .9037506 102.81165 50)" font-size="13" font-family="Helvetica" font-weight="bold"><tspan y="826.8947" x="1030.4507 1038.3937 1042.0077 1053.5647 1060.7927 1065.1217 1072.3497 1080.2927 1083.9067">Timetable</tspan></text>
<path transform="matrix(.9037506,0,0,.9037506,1025.0447,809.2813)" d="M 0 0 L 241.48194 0 L 241.48194 33 L 0 33 L 0 0 Z " fill="#deedf2"/>
<text xml:space="preserve" transform="matrix(.9037506 0 0 .9037506 102.81165 50)" font-size="13" font-family="Helvetica" font-weight="bold"><tspan y="859.8947" x="1030.4507 1034.0647 1039.1217 1042.7357 1049.9638 1053.5778">iri_id</tspan></text>
<text xml:space="preserve" transform="matrix(.9037506 0 0 .9037506 102.81165 50)" font-size="13" font-family="Helvetica" font-weight="bold"><tspan y="859.8947" x="1212.0947 1219.3228 1226.5508 1234.4938 1238.8228 1242.4368">xsd:ID</tspan></text>
<path transform="matrix(.9037506,0,0,.9037506,1025.0447,839.10507)" d="M 0 0 L 241.48194 0 L 241.48194 33 L 0 33 L 0 0 Z " fill="#f5f5f5"/>
<text fill="#828282" xml:space="preserve" transform="matrix(.9037506 0 0 .9037506 102.81165 50)" font-size="13" font-family="Helvetica"><tspan y="892.8947" x="1030.4507 1037.6787 1044.1787 1051.4067 1058.6348 1065.8628 1076.6918 1079.5778 1086.0778 1093.3058 1096.1918 1103.4198 1109.9198 1117.1478 1124.3759">academical_year</tspan></text>
<text fill="#828282" xml:space="preserve" transform="matrix(.9037506 0 0 .9037506 102.81165 50)" font-size="13" font-family="Helvetica"><tspan y="892.8947" x="1193.1089 1199.6089 1206.1089 1213.3369 1216.9509 1223.4509 1227.065 1231.3939 1234.2799 1241.5079">xsd:string</tspan></text>
<path transform="matrix(.9037506,0,0,.9037506,1025.0447,868.92886)" d="M 0 0 L 241.48194 0 L 241.48194 33 L 0 33 L 0 0 Z " fill="#f5f5f5"/>
<text fill="#828282" xml:space="preserve" transform="matrix(.9037506 0 0 .9037506 102.81165 50)" font-size="13" font-family="Helvetica"><tspan y="925.8947" x="1030.4507 1036.9507 1044.1787 1048.5077 1055.0077 1057.8937 1065.1217">version</tspan></text>
<text fill="#828282" xml:space="preserve" transform="matrix(.9037506 0 0 .9037506 102.81165 50)" font-size="13" font-family="Helvetica"><tspan y="925.8947" x="1180.2612 1186.7612 1193.2612 1200.4893 1204.1033 1211.3313 1218.5593 1225.0593 1227.9453 1238.7743 1246.0023">xsd:decimal</tspan></text>
<path transform="matrix(.9037506,0,0,.9037506,1064.0261,495.19917)" d="M 0 0 L 208.27735 0 L 208.27735 33 L 0 33 L 0 0 Z " fill="#306996"/>
<text fill="#ffffff" xml:space="preserve" transform="matrix(.9037506 0 0 .9037506 102.81165 50)" font-size="13" font-family="Helvetica" font-weight="bold"><tspan y="512.36288" x="1073.5838 1082.9697 1086.5838 1093.8118 1101.0398">Class</tspan></text>
<path transform="matrix(.9037506,0,0,.9037506,1064.0261,525.02297)" d="M 0 0 L 208.27735 0 L 208.27735 33 L 0 33 L 0 0 Z " fill="#deedf2"/>
<text xml:space="preserve" transform="matrix(.9037506 0 0 .9037506 102.81165 50)" font-size="13" font-family="Helvetica" font-weight="bold"><tspan y="545.36288" x="1073.5838 1077.1978 1082.2548 1085.8688 1093.0968 1096.7108">iri_id</tspan></text>
<text xml:space="preserve" transform="matrix(.9037506 0 0 .9037506 102.81165 50)" font-size="13" font-family="Helvetica" font-weight="bold"><tspan y="545.36288" x="1222.0232 1229.2512 1236.4793 1244.4223 1248.7512 1252.3652">xsd:ID</tspan></text>
<path transform="matrix(.9037506,0,0,.9037506,1064.0261,554.8467)" d="M 0 0 L 208.27735 0 L 208.27735 33 L 0 33 L 0 0 Z " fill="#f5f5f5"/>
<text fill="#828282" xml:space="preserve" transform="matrix(.9037506 0 0 .9037506 102.81165 50)" font-size="13" font-family="Helvetica"><tspan y="578.36288" x="1073.5838 1080.0838 1082.9697 1090.1978 1096.6978 1103.1978 1110.4258 1116.9258 1124.1538 1131.3818">class_year</tspan></text>
<text fill="#828282" xml:space="preserve" transform="matrix(.9037506 0 0 .9037506 102.81165 50)" font-size="13" font-family="Helvetica"><tspan y="578.36288" x="1194.633 1201.133 1207.633 1214.8611 1218.4751 1221.3611 1228.5891 1232.2031 1239.4312 1246.6592 1253.8872">xsd:integer</tspan></text>
<path transform="matrix(.9037506,0,0,.9037506,1064.0261,584.6705)" d="M 0 0 L 208.27735 0 L 208.27735 33 L 0 33 L 0 0 Z " fill="#f5f5f5"/>
<text fill="#828282" xml:space="preserve" transform="matrix(.9037506 0 0 .9037506 102.81165 50)" font-size="13" font-family="Helvetica"><tspan y="611.36288" x="1073.5838 1080.0838 1082.9697 1090.1978 1096.6978 1103.1978 1110.4258 1116.9258 1124.1538 1131.3818">class_code</tspan></text>
<text fill="#828282" xml:space="preserve" transform="matrix(.9037506 0 0 .9037506 102.81165 50)" font-size="13" font-family="Helvetica"><tspan y="611.36288" x="1202.9358 1209.4358 1215.9358 1223.1638 1226.7778 1230.3919 1237.6199 1244.1199 1251.3479">xsd:token</tspan></text>
<path transform="matrix(.9037506,0,0,.9037506,1064.0261,614.49429)" d="M 0 0 L 208.27735 0 L 208.27735 33 L 0 33 L 0 0 Z " fill="#deedf2"/>
<text fill="#828282" xml:space="preserve" transform="matrix(.9037506 0 0 .9037506 102.81165 50)" font-size="13" font-family="Helvetica"><tspan y="644.36288" x="1073.5838 1077.1978 1080.0838 1090.9127 1098.1408 1101.7548 1108.9828 1116.2108 1119.0968">timetable</tspan></text>
<text fill="#828282" xml:space="preserve" transform="matrix(.9037506 0 0 .9037506 102.81165 50)" font-size="13" font-family="Helvetica"><tspan y="644.36288" x="1224.429 1230.929 1237.429 1244.657 1248.271 1251.885">xsd:ID</tspan></text>
<path transform="matrix(.9037506,0,0,.9037506,372.52388,515.36099)" d="M 0 0 L 196.97852 0 L 196.97852 33 L 0 33 L 0 0 Z " fill="#306996"/>
<text fill="#ffffff" xml:space="preserve" transform="matrix(.9037506 0 0 .9037506 102.81165 50)" font-size="13" font-family="Helvetica" font-weight="bold"><tspan y="534.6719" x="308.43656 317.82255 321.43656 328.66456 335.89256 343.12055 348.17756 356.12055 364.06355">Classroom</tspan></text>
<path transform="matrix(.9037506,0,0,.9037506,372.52388,545.1847)" d="M 0 0 L 196.97852 0 L 196.97852 33 L 0 33 L 0 0 Z " fill="#deedf2"/>
<text xml:space="preserve" transform="matrix(.9037506 0 0 .9037506 102.81165 50)" font-size="13" font-family="Helvetica" font-weight="bold"><tspan y="567.6719" x="308.43656 312.05058 317.10758 320.7216 327.9496 331.5636">iri_id</tspan></text>
<text xml:space="preserve" transform="matrix(.9037506 0 0 .9037506 102.81165 50)" font-size="13" font-family="Helvetica" font-weight="bold"><tspan y="567.6719" x="445.57719 452.80519 460.03318 467.97618 472.30519 475.9192">xsd:ID</tspan></text>
<path transform="matrix(.9037506,0,0,.9037506,372.52388,575.0085)" d="M 0 0 L 196.97852 0 L 196.97852 33 L 0 33 L 0 0 Z " fill="#f5f5f5"/>
<text fill="#828282" xml:space="preserve" transform="matrix(.9037506 0 0 .9037506 102.81165 50)" font-size="13" font-family="Helvetica"><tspan y="600.6719" x="308.43656 314.93656 322.16456 329.39256 336.62055 343.12055 346.00654 349.62055">capacity</tspan></text>
<text fill="#828282" xml:space="preserve" transform="matrix(.9037506 0 0 .9037506 102.81165 50)" font-size="13" font-family="Helvetica"><tspan y="600.6719" x="418.18705 424.68705 431.18705 438.41505 442.02906 444.91505 452.14305 455.75706 462.98506 470.21305 477.44105">xsd:integer</tspan></text>
<path transform="matrix(.9037506,0,0,.9037506,102.81165,510.37858)" d="M 0 0 L 170.6167 0 L 170.6167 33 L 0 33 L 0 0 Z " fill="#306996"/>
<text fill="#ffffff" xml:space="preserve" transform="matrix(.9037506 0 0 .9037506 102.81165 50)" font-size="13" font-family="Helvetica" font-weight="bold"><tspan y="529.1589" x="10 18.671002 26.614003 34.557004 38.171007 45.399007 52.627008">Subject</tspan></text>
<path transform="matrix(.9037506,0,0,.9037506,102.81165,540.20236)" d="M 0 0 L 170.6167 0 L 170.6167 33 L 0 33 L 0 0 Z " fill="#deedf2"/>
<text xml:space="preserve" transform="matrix(.9037506 0 0 .9037506 102.81165 50)" font-size="13" font-family="Helvetica" font-weight="bold"><tspan y="562.1589" x="10 13.614 18.671002 22.285002 29.513003 33.127004">iri_id</tspan></text>
<text xml:space="preserve" transform="matrix(.9037506 0 0 .9037506 102.81165 50)" font-size="13" font-family="Helvetica" font-weight="bold"><tspan y="562.1589" x="120.77881 128.0068 135.2348 143.1778 147.50679 151.12079">xsd:ID</tspan></text>
<path transform="matrix(.9037506,0,0,.9037506,102.81165,570.0261)" d="M 0 0 L 170.6167 0 L 170.6167 33 L 0 33 L 0 0 Z " fill="#f5f5f5"/>
<text fill="#828282" xml:space="preserve" transform="matrix(.9037506 0 0 .9037506 102.81165 50)" font-size="13" font-family="Helvetica"><tspan y="595.1589" x="10 13.614">ID</tspan></text>
<text fill="#828282" xml:space="preserve" transform="matrix(.9037506 0 0 .9037506 102.81165 50)" font-size="13" font-family="Helvetica"><tspan y="595.1589" x="101.69141 108.19141 114.69141 121.9194 125.5334 129.1474 136.3754 142.8754 150.1034">xsd:token</tspan></text>
<path transform="matrix(.9037506,0,0,.9037506,102.81165,599.8499)" d="M 0 0 L 170.6167 0 L 170.6167 33 L 0 33 L 0 0 Z " fill="#f5f5f5"/>
<text fill="#828282" xml:space="preserve" transform="matrix(.9037506 0 0 .9037506 102.81165 50)" font-size="13" font-family="Helvetica"><tspan y="628.1589" x="10 17.228 24.456002 35.285005">name</tspan></text>
<text fill="#828282" xml:space="preserve" transform="matrix(.9037506 0 0 .9037506 102.81165 50)" font-size="13" font-family="Helvetica"><tspan y="628.1589" x="101.79297 108.29297 114.79297 122.020969 125.634967 132.13497 135.74897 140.07796 142.96396 150.19196">xsd:string</tspan></text>
<path transform="matrix(.9037506,0,0,.9037506,410.75889,842.4718)" d="M 0 0 L 206.86182 0 L 206.86182 33 L 0 33 L 0 0 Z " fill="#306996"/>
<text fill="#ffffff" xml:space="preserve" transform="matrix(.9037506 0 0 .9037506 102.81165 50)" font-size="13" font-family="Helvetica" font-weight="bold"><tspan y="896.62" x="350.7436 358.68659 365.91459 373.14259 380.37059 388.31358">Lesson</tspan></text>
<path transform="matrix(.9037506,0,0,.9037506,410.75889,872.29556)" d="M 0 0 L 206.86182 0 L 206.86182 33 L 0 33 L 0 0 Z " fill="#deedf2"/>
<text xml:space="preserve" transform="matrix(.9037506 0 0 .9037506 102.81165 50)" font-size="13" font-family="Helvetica" font-weight="bold"><tspan y="929.62" x="350.7436 354.3576 359.4146 363.02864 370.25663 373.87065">iri_id</tspan></text>
<text xml:space="preserve" transform="matrix(.9037506 0 0 .9037506 102.81165 50)" font-size="13" font-family="Helvetica" font-weight="bold"><tspan y="929.62" x="497.76753 504.9955 512.2235 520.1665 524.4955 528.1095">xsd:ID</tspan></text>
<path transform="matrix(.9037506,0,0,.9037506,410.75889,902.1193)" d="M 0 0 L 206.86182 0 L 206.86182 33 L 0 33 L 0 0 Z " fill="#f5f5f5"/>
<text fill="#828282" xml:space="preserve" transform="matrix(.9037506 0 0 .9037506 102.81165 50)" font-size="13" font-family="Helvetica"><tspan y="962.62" x="350.7436 358.68659 365.91459 373.14259 383.9716 391.1996 400.58558 409.97157">Zoom_URI</tspan></text>
<text fill="#828282" xml:space="preserve" transform="matrix(.9037506 0 0 .9037506 102.81165 50)" font-size="13" font-family="Helvetica"><tspan y="962.62" x="470.39643 476.89643 483.39643 490.62443 494.23844 501.46644 508.69444 515.19448 524.58047 533.96646">xsd:anyURI</tspan></text>
<path transform="matrix(.9037506,0,0,.9037506,410.75889,931.9431)" d="M 0 0 L 206.86182 0 L 206.86182 33 L 0 33 L 0 0 Z " fill="#deedf2"/>
<text fill="#828282" xml:space="preserve" transform="matrix(.9037506 0 0 .9037506 102.81165 50)" font-size="13" font-family="Helvetica"><tspan y="995.62" x="350.7436 357.2436 364.4716 371.6996 374.58558 381.81358 388.31358">subject</tspan></text>
<text fill="#828282" xml:space="preserve" transform="matrix(.9037506 0 0 .9037506 102.81165 50)" font-size="13" font-family="Helvetica"><tspan y="995.62" x="500.17329 506.67329 513.1733 520.4013 524.0153 527.62936">xsd:ID</tspan></text>
<path transform="matrix(.9037506,0,0,.9037506,410.75889,961.76687)" d="M 0 0 L 206.86182 0 L 206.86182 33 L 0 33 L 0 0 Z " fill="#deedf2"/>
<text fill="#828282" xml:space="preserve" transform="matrix(.9037506 0 0 .9037506 102.81165 50)" font-size="13" font-family="Helvetica"><tspan y="1028.62" x="350.7436 357.2436 360.12959 367.35758 373.85758 380.35758 384.68659 391.91459 399.14259">classroom</tspan></text>
<text fill="#828282" xml:space="preserve" transform="matrix(.9037506 0 0 .9037506 102.81165 50)" font-size="13" font-family="Helvetica"><tspan y="1028.62" x="500.17329 506.67329 513.1733 520.4013 524.0153 527.62936">xsd:ID</tspan></text>
<path transform="matrix(.9037506,0,0,.9037506,410.75889,991.59066)" d="M 0 0 L 206.86182 0 L 206.86182 33 L 0 33 L 0 0 Z " fill="#deedf2"/>
<text fill="#828282" xml:space="preserve" transform="matrix(.9037506 0 0 .9037506 102.81165 50)" font-size="13" font-family="Helvetica"><tspan y="1061.62" x="350.7436 354.3576 357.2436 368.0726 375.3006 381.8006 384.68659 391.91459">timeslot</tspan></text>
<text fill="#828282" xml:space="preserve" transform="matrix(.9037506 0 0 .9037506 102.81165 50)" font-size="13" font-family="Helvetica"><tspan y="1061.62" x="500.17329 506.67329 513.1733 520.4013 524.0153 527.62936">xsd:ID</tspan></text>
<path transform="matrix(.9037506,0,0,.9037506,703.02377,519.6086)" d="M 0 0 L 190.1294 0 L 190.1294 33 L 0 33 L 0 0 Z " fill="#306996"/>
<text fill="#ffffff" xml:space="preserve" transform="matrix(.9037506 0 0 .9037506 102.81165 50)" font-size="13" font-family="Helvetica" font-weight="bold"><tspan y="539.3719" x="674.13467 682.07766 685.69168 697.24868 704.4767 713.1477 716.7617 724.7047">TimeSlot</tspan></text>
<path transform="matrix(.9037506,0,0,.9037506,703.02377,549.4324)" d="M 0 0 L 190.1294 0 L 190.1294 33 L 0 33 L 0 0 Z " fill="#deedf2"/>
<text xml:space="preserve" transform="matrix(.9037506 0 0 .9037506 102.81165 50)" font-size="13" font-family="Helvetica" font-weight="bold"><tspan y="572.3719" x="674.13467 677.74868 682.80569 686.4197 693.6477 697.2617">iri_id</tspan></text>
<text xml:space="preserve" transform="matrix(.9037506 0 0 .9037506 102.81165 50)" font-size="13" font-family="Helvetica" font-weight="bold"><tspan y="572.3719" x="804.42617 811.6542 818.8822 826.8252 831.1542 834.7682">xsd:ID</tspan></text>
<path transform="matrix(.9037506,0,0,.9037506,703.02377,579.2561)" d="M 0 0 L 190.1294 0 L 190.1294 33 L 0 33 L 0 0 Z " fill="#f5f5f5"/>
<text fill="#828282" xml:space="preserve" transform="matrix(.9037506 0 0 .9037506 102.81165 50)" font-size="13" font-family="Helvetica"><tspan y="605.3719" x="674.13467 681.3627 688.5907 695.8187 698.7047 705.93276 713.16079 716.04678 723.2748">beginning</tspan></text>
<text fill="#828282" xml:space="preserve" transform="matrix(.9037506 0 0 .9037506 102.81165 50)" font-size="13" font-family="Helvetica"><tspan y="605.3719" x="792.6449 799.1449 805.6449 812.8729 816.48696 820.10098 822.98696 833.8159">xsd:time</tspan></text>
<path transform="matrix(.9037506,0,0,.9037506,703.02377,609.0799)" d="M 0 0 L 190.1294 0 L 190.1294 33 L 0 33 L 0 0 Z " fill="#f5f5f5"/>
<text fill="#828282" xml:space="preserve" transform="matrix(.9037506 0 0 .9037506 102.81165 50)" font-size="13" font-family="Helvetica"><tspan y="638.3719" x="674.13467 681.3627 688.5907">end</tspan></text>
<text fill="#828282" xml:space="preserve" transform="matrix(.9037506 0 0 .9037506 102.81165 50)" font-size="13" font-family="Helvetica"><tspan y="638.3719" x="792.6449 799.1449 805.6449 812.8729 816.48696 820.10098 822.98696 833.8159">xsd:time</tspan></text>
<path transform="matrix(.9037506,0,0,.9037506,703.02377,638.9037)" d="M 0 0 L 190.1294 0 L 190.1294 33 L 0 33 L 0 0 Z " fill="#f5f5f5"/>
<text fill="#828282" xml:space="preserve" transform="matrix(.9037506 0 0 .9037506 102.81165 50)" font-size="13" font-family="Helvetica"><tspan y="671.3719" x="674.13467 681.3627 688.5907">day</tspan></text>
<text fill="#828282" xml:space="preserve" transform="matrix(.9037506 0 0 .9037506 102.81165 50)" font-size="13" font-family="Helvetica"><tspan y="671.3719" x="785.33877 791.83877 798.33877 805.5668 809.1808 812.7948 820.0228 826.5228 833.75088">xsd:token</tspan></text>
<path transform="matrix(.9037506,0,0,.9037506,806.6144,842.56008)" d="M 0 0 L 192.77637 0 L 192.77637 33 L 0 33 L 0 0 Z " fill="#306996"/>
<text fill="#ffffff" xml:space="preserve" transform="matrix(.9037506 0 0 .9037506 102.81165 50)" font-size="13" font-family="Helvetica" font-weight="bold"><tspan y="896.71768" x="788.7577 796.7007 803.9287 811.15676 818.38479 826.32778 834.27078 841.4988 849.4418 853.0558 864.6128 871.8408 876.1698 883.3978 891.3408 894.95486 902.18289">LessonsTimetables</tspan></text>
<path transform="matrix(.9037506,0,0,.9037506,806.6144,872.3838)" d="M 0 0 L 192.77637 0 L 192.77637 33 L 0 33 L 0 0 Z " fill="#deedf2"/>
<text xml:space="preserve" transform="matrix(.9037506 0 0 .9037506 102.81165 50)" font-size="13" font-family="Helvetica" font-weight="bold"><tspan y="929.71768" x="788.7577 792.3717 799.59976 806.82778 814.0558 821.9988">lesson</tspan></text>
<text xml:space="preserve" transform="matrix(.9037506 0 0 .9037506 102.81165 50)" font-size="13" font-family="Helvetica" font-weight="bold"><tspan y="929.71768" x="921.69619 928.9242 936.1522 944.0952 948.4242 952.0382">xsd:ID</tspan></text>
<path transform="matrix(.9037506,0,0,.9037506,806.6144,902.2076)" d="M 0 0 L 192.77637 0 L 192.77637 33 L 0 33 L 0 0 Z " fill="#deedf2"/>
<text xml:space="preserve" transform="matrix(.9037506 0 0 .9037506 102.81165 50)" font-size="13" font-family="Helvetica" font-weight="bold"><tspan y="962.71768" x="788.7577 793.0867 796.7007 808.2577 815.4857 819.8147 827.0427 834.9857 838.59976">timetable</tspan></text>
<text xml:space="preserve" transform="matrix(.9037506 0 0 .9037506 102.81165 50)" font-size="13" font-family="Helvetica" font-weight="bold"><tspan y="962.71768" x="921.69619 928.9242 936.1522 944.0952 948.4242 952.0382">xsd:ID</tspan></text>
<path transform="matrix(.9037506,0,0,.9037506,1297.1151,51.575944)" d="M 0 0 L 214.2378 0 L 214.2378 33 L 0 33 L 0 0 Z " fill="#306996"/>
<text fill="#ffffff" xml:space="preserve" transform="matrix(.9037506 0 0 .9037506 102.81165 50)" font-size="13" font-family="Helvetica" font-weight="bold"><tspan y="21.49378" x="1331.4967 1339.4397 1346.6677 1353.8958 1361.1238 1369.0668 1376.2948">Teacher</tspan></text>
<path transform="matrix(.9037506,0,0,.9037506,1297.1151,81.39971)" d="M 0 0 L 214.2378 0 L 214.2378 33 L 0 33 L 0 0 Z " fill="#deedf2"/>
<text xml:space="preserve" transform="matrix(.9037506 0 0 .9037506 102.81165 50)" font-size="13" font-family="Helvetica" font-weight="bold"><tspan y="54.493783" x="1331.4967 1335.1107 1340.1677 1343.7817 1351.0098 1354.6238">iri_id</tspan></text>
<text xml:space="preserve" transform="matrix(.9037506 0 0 .9037506 102.81165 50)" font-size="13" font-family="Helvetica" font-weight="bold"><tspan y="54.493783" x="1485.8966 1493.1246 1500.3527 1508.2957 1512.6246 1516.2387">xsd:ID</tspan></text>
<path transform="matrix(.9037506,0,0,.9037506,1297.1151,111.22348)" d="M 0 0 L 214.2378 0 L 214.2378 33 L 0 33 L 0 0 Z " fill="#f5f5f5"/>
<text fill="#828282" xml:space="preserve" transform="matrix(.9037506 0 0 .9037506 102.81165 50)" font-size="13" font-family="Helvetica"><tspan y="87.49378" x="1331.4967 1338.7247 1345.9528 1356.7817">name</tspan></text>
<text fill="#828282" xml:space="preserve" transform="matrix(.9037506 0 0 .9037506 102.81165 50)" font-size="13" font-family="Helvetica"><tspan y="87.49378" x="1443.7545 1448.0835 1455.3115 1458.9255 1462.5396 1465.4255 1472.6536 1479.8816 1487.1096 1495.7807 1499.3947 1503.7236 1506.6096 1513.8377">rdf:langString</tspan></text>
<path transform="matrix(.9037506,0,0,.9037506,1297.1151,141.04726)" d="M 0 0 L 214.2378 0 L 214.2378 33 L 0 33 L 0 0 Z " fill="#f5f5f5"/>
<text fill="#828282" xml:space="preserve" transform="matrix(.9037506 0 0 .9037506 102.81165 50)" font-size="13" font-family="Helvetica"><tspan y="120.49378" x="1331.4967 1338.7247 1345.2247 1352.4528 1359.6808 1364.0098 1366.8958 1374.1238 1381.3518 1387.8518">experience</tspan></text>
<text fill="#828282" xml:space="preserve" transform="matrix(.9037506 0 0 .9037506 102.81165 50)" font-size="13" font-family="Helvetica"><tspan y="120.49378" x="1458.5065 1465.0065 1471.5065 1478.7345 1482.3485 1485.2345 1492.4625 1496.0765 1503.3046 1510.5326 1517.7606">xsd:integer</tspan></text>
<path transform="matrix(.9037506,0,0,.9037506,1362.2233,609.98367)" d="M 0 0 L 195.98194 0 L 195.98194 33 L 0 33 L 0 0 Z " fill="#306996"/>
<text fill="#ffffff" xml:space="preserve" transform="matrix(.9037506 0 0 .9037506 102.81165 50)" font-size="13" font-family="Helvetica" font-weight="bold"><tspan y="639.3719" x="1403.539 1412.21 1416.539 1424.4819 1432.4249 1439.653 1447.596">Student</tspan></text>
<path transform="matrix(.9037506,0,0,.9037506,1362.2233,639.80746)" d="M 0 0 L 195.98194 0 L 195.98194 33 L 0 33 L 0 0 Z " fill="#deedf2"/>
<text xml:space="preserve" transform="matrix(.9037506 0 0 .9037506 102.81165 50)" font-size="13" font-family="Helvetica" font-weight="bold"><tspan y="672.3719" x="1403.539 1407.153 1412.21 1415.824 1423.052 1426.666">iri_id</tspan></text>
<text xml:space="preserve" transform="matrix(.9037506 0 0 .9037506 102.81165 50)" font-size="13" font-family="Helvetica" font-weight="bold"><tspan y="672.3719" x="1539.683 1546.911 1554.139 1562.082 1566.411 1570.025">xsd:ID</tspan></text>
<path transform="matrix(.9037506,0,0,.9037506,1362.2233,669.63119)" d="M 0 0 L 195.98194 0 L 195.98194 33 L 0 33 L 0 0 Z " fill="#f5f5f5"/>
<text fill="#828282" xml:space="preserve" transform="matrix(.9037506 0 0 .9037506 102.81165 50)" font-size="13" font-family="Helvetica"><tspan y="705.3719" x="1403.539 1410.767 1417.995 1428.824">name</tspan></text>
<text fill="#828282" xml:space="preserve" transform="matrix(.9037506 0 0 .9037506 102.81165 50)" font-size="13" font-family="Helvetica"><tspan y="705.3719" x="1497.5409 1501.8699 1509.0979 1512.7119 1516.3259 1519.2119 1526.44 1533.668 1540.896 1549.567 1553.181 1557.51 1560.396 1567.624">rdf:langString</tspan></text>
<path transform="matrix(.9037506,0,0,.9037506,1362.2233,699.45498)" d="M 0 0 L 195.98194 0 L 195.98194 33 L 0 33 L 0 0 Z " fill="#deedf2"/>
<text fill="#828282" xml:space="preserve" transform="matrix(.9037506 0 0 .9037506 102.81165 50)" font-size="13" font-family="Helvetica"><tspan y="738.3719" x="1403.539 1410.039 1412.9249 1420.153 1426.653">class</tspan></text>
<text fill="#828282" xml:space="preserve" transform="matrix(.9037506 0 0 .9037506 102.81165 50)" font-size="13" font-family="Helvetica"><tspan y="738.3719" x="1542.0888 1548.5888 1555.0888 1562.3168 1565.9308 1569.5448">xsd:ID</tspan></text>
<path transform="matrix(.9037506,0,0,.9037506,138.8587,50)" d="M 0 0 L 169.77881 0 L 169.77881 33 L 0 33 L 0 0 Z " fill="#306996"/>
<text fill="#ffffff" xml:space="preserve" transform="matrix(.9037506 0 0 .9037506 102.81165 50)" font-size="13" font-family="Helvetica" font-weight="bold"><tspan y="19.75" x="49.886068 57.829069 65.05707 72.285068 79.51306 87.45606 94.68407 99.741069 108.41206 116.355068 124.298069 127.91206 135.14006 142.36806">TeacherSubject</tspan></text>
<path transform="matrix(.9037506,0,0,.9037506,138.8587,79.82377)" d="M 0 0 L 169.77881 0 L 169.77881 33 L 0 33 L 0 0 Z " fill="#deedf2"/>
<text xml:space="preserve" transform="matrix(.9037506 0 0 .9037506 102.81165 50)" font-size="13" font-family="Helvetica" font-weight="bold"><tspan y="52.75" x="49.886068 54.215066 61.443067 68.67107 75.89906 83.842067 91.07007">teacher</tspan></text>
<text xml:space="preserve" transform="matrix(.9037506 0 0 .9037506 102.81165 50)" font-size="13" font-family="Helvetica" font-weight="bold"><tspan y="52.75" x="159.82698 167.05498 174.28298 182.22597 186.55496 190.16896">xsd:ID</tspan></text>
<path transform="matrix(.9037506,0,0,.9037506,138.8587,109.64754)" d="M 0 0 L 169.77881 0 L 169.77881 33 L 0 33 L 0 0 Z " fill="#deedf2"/>
<text xml:space="preserve" transform="matrix(.9037506 0 0 .9037506 102.81165 50)" font-size="13" font-family="Helvetica" font-weight="bold"><tspan y="85.75" x="49.886068 57.114068 65.05707 73.00007 76.61407 83.84207 91.07007">subject</tspan></text>
<text xml:space="preserve" transform="matrix(.9037506 0 0 .9037506 102.81165 50)" font-size="13" font-family="Helvetica" font-weight="bold"><tspan y="85.75" x="159.82698 167.05498 174.28298 182.22597 186.55496 190.16896">xsd:ID</tspan></text>
<path transform="matrix(.9037506,0,0,.9037506,1351.2507,345.486)" d="M 0 0 L 159.82569 0 L 159.82569 33 L 0 33 L 0 0 Z " fill="#306996"/>
<text fill="#ffffff" xml:space="preserve" transform="matrix(.9037506 0 0 .9037506 102.81165 50)" font-size="13" font-family="Helvetica" font-weight="bold"><tspan y="346.70524" x="1391.3978 1400.7838 1404.3978 1411.6259 1418.8539 1426.0819 1434.0249 1441.2529 1448.481 1455.709 1463.652 1470.88">ClassTeacher</tspan></text>
<path transform="matrix(.9037506,0,0,.9037506,1351.2507,375.30976)" d="M 0 0 L 159.82569 0 L 159.82569 33 L 0 33 L 0 0 Z " fill="#deedf2"/>
<text xml:space="preserve" transform="matrix(.9037506 0 0 .9037506 102.81165 50)" font-size="13" font-family="Helvetica" font-weight="bold"><tspan y="379.70524" x="1391.3978 1398.6259 1402.2399 1409.4679 1416.6959">class</tspan></text>
<text xml:space="preserve" transform="matrix(.9037506 0 0 .9037506 102.81165 50)" font-size="13" font-family="Helvetica" font-weight="bold"><tspan y="379.70524" x="1491.3856 1498.6137 1505.8417 1513.7847 1518.1137 1521.7277">xsd:ID</tspan></text>
<path transform="matrix(.9037506,0,0,.9037506,1351.2507,405.1335)" d="M 0 0 L 159.82569 0 L 159.82569 33 L 0 33 L 0 0 Z " fill="#deedf2"/>
<text fill="#828282" xml:space="preserve" transform="matrix(.9037506 0 0 .9037506 102.81165 50)" font-size="13" font-family="Helvetica"><tspan y="412.70524" x="1391.3978 1395.0119 1402.2399 1409.4679 1415.9679 1423.1959 1430.424">teacher</tspan></text>
<text fill="#828282" xml:space="preserve" transform="matrix(.9037506 0 0 .9037506 102.81165 50)" font-size="13" font-family="Helvetica"><tspan y="412.70524" x="1493.7914 1500.2914 1506.7914 1514.0194 1517.6334 1521.2474">xsd:ID</tspan></text>
<path transform="matrix(.9037506,0,0,.9037506,1615.4362,731.21627)" d="M 0 0 L 223.23877 0 L 223.23877 33 L 0 33 L 0 0 Z " fill="#306996"/>
<text fill="#ffffff" xml:space="preserve" transform="matrix(.9037506 0 0 .9037506 102.81165 50)" font-size="13" font-family="Helvetica" font-weight="bold"><tspan y="773.51577" x="1683.719 1692.39 1696.719 1704.662 1712.605 1719.833 1727.776 1732.105 1741.491 1745.105 1752.333 1759.561 1767.504 1774.732 1786.2891">StudentNickname</tspan></text>
<path transform="matrix(.9037506,0,0,.9037506,1615.4362,761.04006)" d="M 0 0 L 223.23877 0 L 223.23877 33 L 0 33 L 0 0 Z " fill="#deedf2"/>
<text xml:space="preserve" transform="matrix(.9037506 0 0 .9037506 102.81165 50)" font-size="13" font-family="Helvetica" font-weight="bold"><tspan y="806.51577" x="1683.719 1690.947 1695.276 1703.219 1711.162 1718.39 1726.333">student</tspan></text>
<text xml:space="preserve" transform="matrix(.9037506 0 0 .9037506 102.81165 50)" font-size="13" font-family="Helvetica" font-weight="bold"><tspan y="806.51577" x="1847.1199 1854.3479 1861.5759 1869.5189 1873.8479 1877.4619">xsd:ID</tspan></text>
<path transform="matrix(.9037506,0,0,.9037506,1615.4362,790.8638)" d="M 0 0 L 223.23877 0 L 223.23877 33 L 0 33 L 0 0 Z " fill="#f5f5f5"/>
<text xml:space="preserve" transform="matrix(.9037506 0 0 .9037506 102.81165 50)" font-size="13" font-family="Helvetica" font-weight="bold"><tspan y="839.51577" x="1683.719 1691.662 1695.276 1702.504 1709.732 1717.675 1724.9031 1736.4601">nickname</tspan></text>
<text xml:space="preserve" transform="matrix(.9037506 0 0 .9037506 102.81165 50)" font-size="13" font-family="Helvetica" font-weight="bold"><tspan y="839.51577" x="1797.8176 1802.8746 1810.8176 1815.1466 1819.4756 1823.0896 1830.3176 1838.2606 1846.2036 1854.8746 1859.2036 1864.2606 1867.8746 1875.8176">rdf:langString</tspan></text>
</g>
</svg>
